<svg version="1.1" xmlns="http://www.w3.org/2000/svg" xmlns:xlink="http://www.w3.org/1999/xlink" width="828.58154296875" height="692"><defs/><g><text fill="#eeeeee" stroke="none" font-family="Arial" font-size="24px" font-style="normal" font-weight="normal" text-decoration="none" x="0" y="0">UNREGISTERED</text><text fill="#eeeeee" stroke="none" font-family="Arial" font-size="24px" font-style="normal" font-weight="normal" text-decoration="none" x="0" y="30">UNREGISTERED</text><text fill="#eeeeee" stroke="none" font-family="Arial" font-size="24px" font-style="normal" font-weight="normal" text-decoration="none" x="0" y="60">UNREGISTERED</text><text fill="#eeeeee" stroke="none" font-family="Arial" font-size="24px" font-style="normal" font-weight="normal" text-decoration="none" x="0" y="90">UNREGISTERED</text><text fill="#eeeeee" stroke="none" font-family="Arial" font-size="24px" font-style="normal" font-weight="normal" text-decoration="none" x="0" y="120">UNREGISTERED</text><text fill="#eeeeee" stroke="none" font-family="Arial" font-size="24px" font-style="normal" font-weight="normal" text-decoration="none" x="0" y="150">UNREGISTERED</text><text fill="#eeeeee" stroke="none" font-family="Arial" font-size="24px" font-style="normal" font-weight="normal" text-decoration="none" x="0" y="180">UNREGISTERED</text><text fill="#eeeeee" stroke="none" font-family="Arial" font-size="24px" font-style="normal" font-weight="normal" text-decoration="none" x="0" y="210">UNREGISTERED</text><text fill="#eeeeee" stroke="none" font-family="Arial" font-size="24px" font-style="normal" font-weight="normal" text-decoration="none" x="0" y="240">UNREGISTERED</text><text fill="#eeeeee" stroke="none" font-family="Arial" font-size="24px" font-style="normal" font-weight="normal" text-decoration="none" x="0" y="270">UNREGISTERED</text><text fill="#eeeeee" stroke="none" font-family="Arial" font-size="24px" font-style="normal" font-weight="normal" text-decoration="none" x="0" y="300">UNREGISTERED</text><text fill="#eeeeee" stroke="none" font-family="Arial" font-size="24px" font-style="normal" font-weight="normal" text-decoration="none" x="0" y="330">UNREGISTERED</text><text fill="#eeeeee" stroke="none" font-family="Arial" font-size="24px" font-style="normal" font-weight="normal" text-decoration="none" x="0" y="360">UNREGISTERED</text><text fill="#eeeeee" stroke="none" font-family="Arial" font-size="24px" font-style="normal" font-weight="normal" text-decoration="none" x="0" y="390">UNREGISTERED</text><text fill="#eeeeee" stroke="none" font-family="Arial" font-size="24px" font-style="normal" font-weight="normal" text-decoration="none" x="0" y="420">UNREGISTERED</text><text fill="#eeeeee" stroke="none" font-family="Arial" font-size="24px" font-style="normal" font-weight="normal" text-decoration="none" x="0" y="450">UNREGISTERED</text><text fill="#eeeeee" stroke="none" font-family="Arial" font-size="24px" font-style="normal" font-weight="normal" text-decoration="none" x="0" y="480">UNREGISTERED</text><text fill="#eeeeee" stroke="none" font-family="Arial" font-size="24px" font-style="normal" font-weight="normal" text-decoration="none" x="0" y="510">UNREGISTERED</text><text fill="#eeeeee" stroke="none" font-family="Arial" font-size="24px" font-style="normal" font-weight="normal" text-decoration="none" x="0" y="540">UNREGISTERED</text><text fill="#eeeeee" stroke="none" font-family="Arial" font-size="24px" font-style="normal" font-weight="normal" text-decoration="none" x="0" y="570">UNREGISTERED</text><text fill="#eeeeee" stroke="none" font-family="Arial" font-size="24px" font-style="normal" font-weight="normal" text-decoration="none" x="0" y="600">UNREGISTERED</text><text fill="#eeeeee" stroke="none" font-family="Arial" font-size="24px" font-style="normal" font-weight="normal" text-decoration="none" x="0" y="630">UNREGISTERED</text><text fill="#eeeeee" stroke="none" font-family="Arial" font-size="24px" font-style="normal" font-weight="normal" text-decoration="none" x="0" y="660">UNREGISTERED</text><text fill="#eeeeee" stroke="none" font-family="Arial" font-size="24px" font-style="normal" font-weight="normal" text-decoration="none" x="0" y="690">UNREGISTERED</text><text fill="#eeeeee" stroke="none" font-family="Arial" font-size="24px" font-style="normal" font-weight="normal" text-decoration="none" x="200" y="0">UNREGISTERED</text><text fill="#eeeeee" stroke="none" font-family="Arial" font-size="24px" font-style="normal" font-weight="normal" text-decoration="none" x="200" y="30">UNREGISTERED</text><text fill="#eeeeee" stroke="none" font-family="Arial" font-size="24px" font-style="normal" font-weight="normal" text-decoration="none" x="200" y="60">UNREGISTERED</text><text fill="#eeeeee" stroke="none" font-family="Arial" font-size="24px" font-style="normal" font-weight="normal" text-decoration="none" x="200" y="90">UNREGISTERED</text><text fill="#eeeeee" stroke="none" font-family="Arial" font-size="24px" font-style="normal" font-weight="normal" text-decoration="none" x="200" y="120">UNREGISTERED</text><text fill="#eeeeee" stroke="none" font-family="Arial" font-size="24px" font-style="normal" font-weight="normal" text-decoration="none" x="200" y="150">UNREGISTERED</text><text fill="#eeeeee" stroke="none" font-family="Arial" font-size="24px" font-style="normal" font-weight="normal" text-decoration="none" x="200" y="180">UNREGISTERED</text><text fill="#eeeeee" stroke="none" font-family="Arial" font-size="24px" font-style="normal" font-weight="normal" text-decoration="none" x="200" y="210">UNREGISTERED</text><text fill="#eeeeee" stroke="none" font-family="Arial" font-size="24px" font-style="normal" font-weight="normal" text-decoration="none" x="200" y="240">UNREGISTERED</text><text fill="#eeeeee" stroke="none" font-family="Arial" font-size="24px" font-style="normal" font-weight="normal" text-decoration="none" x="200" y="270">UNREGISTERED</text><text fill="#eeeeee" stroke="none" font-family="Arial" font-size="24px" font-style="normal" font-weight="normal" text-decoration="none" x="200" y="300">UNREGISTERED</text><text fill="#eeeeee" stroke="none" font-family="Arial" font-size="24px" font-style="normal" font-weight="normal" text-decoration="none" x="200" y="330">UNREGISTERED</text><text fill="#eeeeee" stroke="none" font-family="Arial" font-size="24px" font-style="normal" font-weight="normal" text-decoration="none" x="200" y="360">UNREGISTERED</text><text fill="#eeeeee" stroke="none" font-family="Arial" font-size="24px" font-style="normal" font-weight="normal" text-decoration="none" x="200" y="390">UNREGISTERED</text><text fill="#eeeeee" stroke="none" font-family="Arial" font-size="24px" font-style="normal" font-weight="normal" text-decoration="none" x="200" y="420">UNREGISTERED</text><text fill="#eeeeee" stroke="none" font-family="Arial" font-size="24px" font-style="normal" font-weight="normal" text-decoration="none" x="200" y="450">UNREGISTERED</text><text fill="#eeeeee" stroke="none" font-family="Arial" font-size="24px" font-style="normal" font-weight="normal" text-decoration="none" x="200" y="480">UNREGISTERED</text><text fill="#eeeeee" stroke="none" font-family="Arial" font-size="24px" font-style="normal" font-weight="normal" text-decoration="none" x="200" y="510">UNREGISTERED</text><text fill="#eeeeee" stroke="none" font-family="Arial" font-size="24px" font-style="normal" font-weight="normal" text-decoration="none" x="200" y="540">UNREGISTERED</text><text fill="#eeeeee" stroke="none" font-family="Arial" font-size="24px" font-style="normal" font-weight="normal" text-decoration="none" x="200" y="570">UNREGISTERED</text><text fill="#eeeeee" stroke="none" font-family="Arial" font-size="24px" font-style="normal" font-weight="normal" text-decoration="none" x="200" y="600">UNREGISTERED</text><text fill="#eeeeee" stroke="none" font-family="Arial" font-size="24px" font-style="normal" font-weight="normal" text-decoration="none" x="200" y="630">UNREGISTERED</text><text fill="#eeeeee" stroke="none" font-family="Arial" font-size="24px" font-style="normal" font-weight="normal" text-decoration="none" x="200" y="660">UNREGISTERED</text><text fill="#eeeeee" stroke="none" font-family="Arial" font-size="24px" font-style="normal" font-weight="normal" text-decoration="none" x="200" y="690">UNREGISTERED</text><text fill="#eeeeee" stroke="none" font-family="Arial" font-size="24px" font-style="normal" font-weight="normal" text-decoration="none" x="400" y="0">UNREGISTERED</text><text fill="#eeeeee" stroke="none" font-family="Arial" font-size="24px" font-style="normal" font-weight="normal" text-decoration="none" x="400" y="30">UNREGISTERED</text><text fill="#eeeeee" stroke="none" font-family="Arial" font-size="24px" font-style="normal" font-weight="normal" text-decoration="none" x="400" y="60">UNREGISTERED</text><text fill="#eeeeee" stroke="none" font-family="Arial" font-size="24px" font-style="normal" font-weight="normal" text-decoration="none" x="400" y="90">UNREGISTERED</text><text fill="#eeeeee" stroke="none" font-family="Arial" font-size="24px" font-style="normal" font-weight="normal" text-decoration="none" x="400" y="120">UNREGISTERED</text><text fill="#eeeeee" stroke="none" font-family="Arial" font-size="24px" font-style="normal" font-weight="normal" text-decoration="none" x="400" y="150">UNREGISTERED</text><text fill="#eeeeee" stroke="none" font-family="Arial" font-size="24px" font-style="normal" font-weight="normal" text-decoration="none" x="400" y="180">UNREGISTERED</text><text fill="#eeeeee" stroke="none" font-family="Arial" font-size="24px" font-style="normal" font-weight="normal" text-decoration="none" x="400" y="210">UNREGISTERED</text><text fill="#eeeeee" stroke="none" font-family="Arial" font-size="24px" font-style="normal" font-weight="normal" text-decoration="none" x="400" y="240">UNREGISTERED</text><text fill="#eeeeee" stroke="none" font-family="Arial" font-size="24px" font-style="normal" font-weight="normal" text-decoration="none" x="400" y="270">UNREGISTERED</text><text fill="#eeeeee" stroke="none" font-family="Arial" font-size="24px" font-style="normal" font-weight="normal" text-decoration="none" x="400" y="300">UNREGISTERED</text><text fill="#eeeeee" stroke="none" font-family="Arial" font-size="24px" font-style="normal" font-weight="normal" text-decoration="none" x="400" y="330">UNREGISTERED</text><text fill="#eeeeee" stroke="none" font-family="Arial" font-size="24px" font-style="normal" font-weight="normal" text-decoration="none" x="400" y="360">UNREGISTERED</text><text fill="#eeeeee" stroke="none" font-family="Arial" font-size="24px" font-style="normal" font-weight="normal" text-decoration="none" x="400" y="390">UNREGISTERED</text><text fill="#eeeeee" stroke="none" font-family="Arial" font-size="24px" font-style="normal" font-weight="normal" text-decoration="none" x="400" y="420">UNREGISTERED</text><text fill="#eeeeee" stroke="none" font-family="Arial" font-size="24px" font-style="normal" font-weight="normal" text-decoration="none" x="400" y="450">UNREGISTERED</text><text fill="#eeeeee" stroke="none" font-family="Arial" font-size="24px" font-style="normal" font-weight="normal" text-decoration="none" x="400" y="480">UNREGISTERED</text><text fill="#eeeeee" stroke="none" font-family="Arial" font-size="24px" font-style="normal" font-weight="normal" text-decoration="none" x="400" y="510">UNREGISTERED</text><text fill="#eeeeee" stroke="none" font-family="Arial" font-size="24px" font-style="normal" font-weight="normal" text-decoration="none" x="400" y="540">UNREGISTERED</text><text fill="#eeeeee" stroke="none" font-family="Arial" font-size="24px" font-style="normal" font-weight="normal" text-decoration="none" x="400" y="570">UNREGISTERED</text><text fill="#eeeeee" stroke="none" font-family="Arial" font-size="24px" font-style="normal" font-weight="normal" text-decoration="none" x="400" y="600">UNREGISTERED</text><text fill="#eeeeee" stroke="none" font-family="Arial" font-size="24px" font-style="normal" font-weight="normal" text-decoration="none" x="400" y="630">UNREGISTERED</text><text fill="#eeeeee" stroke="none" font-family="Arial" font-size="24px" font-style="normal" font-weight="normal" text-decoration="none" x="400" y="660">UNREGISTERED</text><text fill="#eeeeee" stroke="none" font-family="Arial" font-size="24px" font-style="normal" font-weight="normal" text-decoration="none" x="400" y="690">UNREGISTERED</text><text fill="#eeeeee" stroke="none" font-family="Arial" font-size="24px" font-style="normal" font-weight="normal" text-decoration="none" x="600" y="0">UNREGISTERED</text><text fill="#eeeeee" stroke="none" font-family="Arial" font-size="24px" font-style="normal" font-weight="normal" text-decoration="none" x="600" y="30">UNREGISTERED</text><text fill="#eeeeee" stroke="none" font-family="Arial" font-size="24px" font-style="normal" font-weight="normal" text-decoration="none" x="600" y="60">UNREGISTERED</text><text fill="#eeeeee" stroke="none" font-family="Arial" font-size="24px" font-style="normal" font-weight="normal" text-decoration="none" x="600" y="90">UNREGISTERED</text><text fill="#eeeeee" stroke="none" font-family="Arial" font-size="24px" font-style="normal" font-weight="normal" text-decoration="none" x="600" y="120">UNREGISTERED</text><text fill="#eeeeee" stroke="none" font-family="Arial" font-size="24px" font-style="normal" font-weight="normal" text-decoration="none" x="600" y="150">UNREGISTERED</text><text fill="#eeeeee" stroke="none" font-family="Arial" font-size="24px" font-style="normal" font-weight="normal" text-decoration="none" x="600" y="180">UNREGISTERED</text><text fill="#eeeeee" stroke="none" font-family="Arial" font-size="24px" font-style="normal" font-weight="normal" text-decoration="none" x="600" y="210">UNREGISTERED</text><text fill="#eeeeee" stroke="none" font-family="Arial" font-size="24px" font-style="normal" font-weight="normal" text-decoration="none" x="600" y="240">UNREGISTERED</text><text fill="#eeeeee" stroke="none" font-family="Arial" font-size="24px" font-style="normal" font-weight="normal" text-decoration="none" x="600" y="270">UNREGISTERED</text><text fill="#eeeeee" stroke="none" font-family="Arial" font-size="24px" font-style="normal" font-weight="normal" text-decoration="none" x="600" y="300">UNREGISTERED</text><text fill="#eeeeee" stroke="none" font-family="Arial" font-size="24px" font-style="normal" font-weight="normal" text-decoration="none" x="600" y="330">UNREGISTERED</text><text fill="#eeeeee" stroke="none" font-family="Arial" font-size="24px" font-style="normal" font-weight="normal" text-decoration="none" x="600" y="360">UNREGISTERED</text><text fill="#eeeeee" stroke="none" font-family="Arial" font-size="24px" font-style="normal" font-weight="normal" text-decoration="none" x="600" y="390">UNREGISTERED</text><text fill="#eeeeee" stroke="none" font-family="Arial" font-size="24px" font-style="normal" font-weight="normal" text-decoration="none" x="600" y="420">UNREGISTERED</text><text fill="#eeeeee" stroke="none" font-family="Arial" font-size="24px" font-style="normal" font-weight="normal" text-decoration="none" x="600" y="450">UNREGISTERED</text><text fill="#eeeeee" stroke="none" font-family="Arial" font-size="24px" font-style="normal" font-weight="normal" text-decoration="none" x="600" y="480">UNREGISTERED</text><text fill="#eeeeee" stroke="none" font-family="Arial" font-size="24px" font-style="normal" font-weight="normal" text-decoration="none" x="600" y="510">UNREGISTERED</text><text fill="#eeeeee" stroke="none" font-family="Arial" font-size="24px" font-style="normal" font-weight="normal" text-decoration="none" x="600" y="540">UNREGISTERED</text><text fill="#eeeeee" stroke="none" font-family="Arial" font-size="24px" font-style="normal" font-weight="normal" text-decoration="none" x="600" y="570">UNREGISTERED</text><text fill="#eeeeee" stroke="none" font-family="Arial" font-size="24px" font-style="normal" font-weight="normal" text-decoration="none" x="600" y="600">UNREGISTERED</text><text fill="#eeeeee" stroke="none" font-family="Arial" font-size="24px" font-style="normal" font-weight="normal" text-decoration="none" x="600" y="630">UNREGISTERED</text><text fill="#eeeeee" stroke="none" font-family="Arial" font-size="24px" font-style="normal" font-weight="normal" text-decoration="none" x="600" y="660">UNREGISTERED</text><text fill="#eeeeee" stroke="none" font-family="Arial" font-size="24px" font-style="normal" font-weight="normal" text-decoration="none" x="600" y="690">UNREGISTERED</text><text fill="#eeeeee" stroke="none" font-family="Arial" font-size="24px" font-style="normal" font-weight="normal" text-decoration="none" x="800" y="0">UNREGISTERED</text><text fill="#eeeeee" stroke="none" font-family="Arial" font-size="24px" font-style="normal" font-weight="normal" text-decoration="none" x="800" y="30">UNREGISTERED</text><text fill="#eeeeee" stroke="none" font-family="Arial" font-size="24px" font-style="normal" font-weight="normal" text-decoration="none" x="800" y="60">UNREGISTERED</text><text fill="#eeeeee" stroke="none" font-family="Arial" font-size="24px" font-style="normal" font-weight="normal" text-decoration="none" x="800" y="90">UNREGISTERED</text><text fill="#eeeeee" stroke="none" font-family="Arial" font-size="24px" font-style="normal" font-weight="normal" text-decoration="none" x="800" y="120">UNREGISTERED</text><text fill="#eeeeee" stroke="none" font-family="Arial" font-size="24px" font-style="normal" font-weight="normal" text-decoration="none" x="800" y="150">UNREGISTERED</text><text fill="#eeeeee" stroke="none" font-family="Arial" font-size="24px" font-style="normal" font-weight="normal" text-decoration="none" x="800" y="180">UNREGISTERED</text><text fill="#eeeeee" stroke="none" font-family="Arial" font-size="24px" font-style="normal" font-weight="normal" text-decoration="none" x="800" y="210">UNREGISTERED</text><text fill="#eeeeee" stroke="none" font-family="Arial" font-size="24px" font-style="normal" font-weight="normal" text-decoration="none" x="800" y="240">UNREGISTERED</text><text fill="#eeeeee" stroke="none" font-family="Arial" font-size="24px" font-style="normal" font-weight="normal" text-decoration="none" x="800" y="270">UNREGISTERED</text><text fill="#eeeeee" stroke="none" font-family="Arial" font-size="24px" font-style="normal" font-weight="normal" text-decoration="none" x="800" y="300">UNREGISTERED</text><text fill="#eeeeee" stroke="none" font-family="Arial" font-size="24px" font-style="normal" font-weight="normal" text-decoration="none" x="800" y="330">UNREGISTERED</text><text fill="#eeeeee" stroke="none" font-family="Arial" font-size="24px" font-style="normal" font-weight="normal" text-decoration="none" x="800" y="360">UNREGISTERED</text><text fill="#eeeeee" stroke="none" font-family="Arial" font-size="24px" font-style="normal" font-weight="normal" text-decoration="none" x="800" y="390">UNREGISTERED</text><text fill="#eeeeee" stroke="none" font-family="Arial" font-size="24px" font-style="normal" font-weight="normal" text-decoration="none" x="800" y="420">UNREGISTERED</text><text fill="#eeeeee" stroke="none" font-family="Arial" font-size="24px" font-style="normal" font-weight="normal" text-decoration="none" x="800" y="450">UNREGISTERED</text><text fill="#eeeeee" stroke="none" font-family="Arial" font-size="24px" font-style="normal" font-weight="normal" text-decoration="none" x="800" y="480">UNREGISTERED</text><text fill="#eeeeee" stroke="none" font-family="Arial" font-size="24px" font-style="normal" font-weight="normal" text-decoration="none" x="800" y="510">UNREGISTERED</text><text fill="#eeeeee" stroke="none" font-family="Arial" font-size="24px" font-style="normal" font-weight="normal" text-decoration="none" x="800" y="540">UNREGISTERED</text><text fill="#eeeeee" stroke="none" font-family="Arial" font-size="24px" font-style="normal" font-weight="normal" text-decoration="none" x="800" y="570">UNREGISTERED</text><text fill="#eeeeee" stroke="none" font-family="Arial" font-size="24px" font-style="normal" font-weight="normal" text-decoration="none" x="800" y="600">UNREGISTERED</text><text fill="#eeeeee" stroke="none" font-family="Arial" font-size="24px" font-style="normal" font-weight="normal" text-decoration="none" x="800" y="630">UNREGISTERED</text><text fill="#eeeeee" stroke="none" font-family="Arial" font-size="24px" font-style="normal" font-weight="normal" text-decoration="none" x="800" y="660">UNREGISTERED</text><text fill="#eeeeee" stroke="none" font-family="Arial" font-size="24px" font-style="normal" font-weight="normal" text-decoration="none" x="800" y="690">UNREGISTERED</text><g transform="translate(-230,-102) scale(1,1)"><rect fill="#C0C0C0" stroke="none" x="247" y="231" width="113.04443359375" height="225" opacity="0.2"/></g><g transform="translate(-230,-102) scale(1,1)"><rect fill="#ffffff" stroke="none" x="240" y="224" width="113.04443359375" height="225"/></g><g transform="translate(-230,-102) scale(1,1)"><path fill="none" stroke="#000000" d="M 240 224 L 353.04443359375 224 L 353.04443359375 449 L 240 449 L 240 224 Z Z" stroke-miterlimit="10"/></g><g transform="translate(-230,-102) scale(1,1)"><path fill="none" stroke="#000000" d="M 240 262 L 353.04443359375 262" stroke-miterlimit="10"/></g><g transform="translate(-230,-102) scale(1,1)"><g><path fill="none" stroke="none"/><text fill="#000000" stroke="none" font-family="Arial" font-size="13px" font-style="normal" font-weight="normal" text-decoration="none" x="253.158203125" y="241.5">«enumeration»</text></g></g><g transform="translate(-230,-102) scale(1,1)"><g><path fill="none" stroke="none"/><text fill="#000000" stroke="none" font-family="Arial" font-size="13px" font-style="normal" font-weight="bold" text-decoration="none" x="274.47998046875" y="256.5">Buttons</text></g></g><g transform="translate(-230,-102) scale(1,1)"><g><path fill="none" stroke="none"/><text fill="#000000" stroke="none" font-family="Arial" font-size="13px" font-style="normal" font-weight="normal" text-decoration="none" x="245" y="279.5">Button0</text></g></g><g transform="translate(-230,-102) scale(1,1)"><g><path fill="none" stroke="none"/><text fill="#000000" stroke="none" font-family="Arial" font-size="13px" font-style="normal" font-weight="normal" text-decoration="none" x="245" y="294.5">Button1</text></g></g><g transform="translate(-230,-102) scale(1,1)"><g><path fill="none" stroke="none"/><text fill="#000000" stroke="none" font-family="Arial" font-size="13px" font-style="normal" font-weight="normal" text-decoration="none" x="245" y="309.5">Button2</text></g></g><g transform="translate(-230,-102) scale(1,1)"><g><path fill="none" stroke="none"/><text fill="#000000" stroke="none" font-family="Arial" font-size="13px" font-style="normal" font-weight="normal" text-decoration="none" x="245" y="324.5">Button3</text></g></g><g transform="translate(-230,-102) scale(1,1)"><g><path fill="none" stroke="none"/><text fill="#000000" stroke="none" font-family="Arial" font-size="13px" font-style="normal" font-weight="normal" text-decoration="none" x="245" y="339.5">Button4</text></g></g><g transform="translate(-230,-102) scale(1,1)"><g><path fill="none" stroke="none"/><text fill="#000000" stroke="none" font-family="Arial" font-size="13px" font-style="normal" font-weight="normal" text-decoration="none" x="245" y="354.5">Button5</text></g></g><g transform="translate(-230,-102) scale(1,1)"><g><path fill="none" stroke="none"/><text fill="#000000" stroke="none" font-family="Arial" font-size="13px" font-style="normal" font-weight="normal" text-decoration="none" x="245" y="369.5">Button6</text></g></g><g transform="translate(-230,-102) scale(1,1)"><g><path fill="none" stroke="none"/><text fill="#000000" stroke="none" font-family="Arial" font-size="13px" font-style="normal" font-weight="normal" text-decoration="none" x="245" y="384.5">Button7</text></g></g><g transform="translate(-230,-102) scale(1,1)"><g><path fill="none" stroke="none"/><text fill="#000000" stroke="none" font-family="Arial" font-size="13px" font-style="normal" font-weight="normal" text-decoration="none" x="245" y="399.5">Button8</text></g></g><g transform="translate(-230,-102) scale(1,1)"><g><path fill="none" stroke="none"/><text fill="#000000" stroke="none" font-family="Arial" font-size="13px" font-style="normal" font-weight="normal" text-decoration="none" x="245" y="414.5">Button9</text></g></g><g transform="translate(-230,-102) scale(1,1)"><g><path fill="none" stroke="none"/><text fill="#000000" stroke="none" font-family="Arial" font-size="13px" font-style="normal" font-weight="normal" text-decoration="none" x="245" y="429.5">ButtonOK</text></g></g><g transform="translate(-230,-102) scale(1,1)"><g><path fill="none" stroke="none"/><text fill="#000000" stroke="none" font-family="Arial" font-size="13px" font-style="normal" font-weight="normal" text-decoration="none" x="245" y="444.5">NumberOfButtons</text></g></g><g transform="translate(-230,-102) scale(1,1)"><rect fill="#C0C0C0" stroke="none" x="447" y="239" width="232.640625" height="71" opacity="0.2"/></g><g transform="translate(-230,-102) scale(1,1)"><rect fill="#ffffff" stroke="none" x="440" y="232" width="232.640625" height="71"/></g><g transform="translate(-230,-102) scale(1,1)"><path fill="none" stroke="#000000" d="M 440 232 L 672.640625 232 L 672.640625 303 L 440 303 L 440 232 Z Z" stroke-miterlimit="10"/></g><g transform="translate(-230,-102) scale(1,1)"><path fill="none" stroke="#000000" d="M 440 270 L 672.640625 270" stroke-miterlimit="10"/></g><g transform="translate(-230,-102) scale(1,1)"><g><path fill="none" stroke="none"/><text fill="#000000" stroke="none" font-family="Arial" font-size="13px" font-style="normal" font-weight="normal" text-decoration="none" x="524.159912109375" y="249.5">«interface»</text></g></g><g transform="translate(-230,-102) scale(1,1)"><g><path fill="none" stroke="none"/><text fill="#000000" stroke="none" font-family="Arial" font-size="13px" font-style="normal" font-weight="bold" text-decoration="none" x="497.061767578125" y="264.5">AbstractButtonPanel</text></g></g><g transform="translate(-230,-102) scale(1,1)"><g><path fill="none" stroke="none"/><text fill="#000000" stroke="none" font-family="Arial" font-size="13px" font-style="normal" font-weight="normal" text-decoration="none" x="445" y="287.5">+RegisterPress(input: uint8_t): Buttons</text></g></g><g transform="translate(-230,-102) scale(1,1)"><rect fill="#C0C0C0" stroke="none" x="431" y="367" width="260.1259765625" height="100" opacity="0.2"/></g><g transform="translate(-230,-102) scale(1,1)"><rect fill="#ffffff" stroke="none" x="424" y="360" width="260.1259765625" height="100"/></g><g transform="translate(-230,-102) scale(1,1)"><path fill="none" stroke="#000000" d="M 424 360 L 684.1259765625 360 L 684.1259765625 460 L 424 460 L 424 360 Z Z" stroke-miterlimit="10"/></g><g transform="translate(-230,-102) scale(1,1)"><path fill="none" stroke="#000000" d="M 424 385 L 684.1259765625 385" stroke-miterlimit="10"/></g><g transform="translate(-230,-102) scale(1,1)"><path fill="none" stroke="#000000" d="M 424 423 L 684.1259765625 423" stroke-miterlimit="10"/></g><g transform="translate(-230,-102) scale(1,1)"><g><path fill="none" stroke="none"/><text fill="#000000" stroke="none" font-family="Arial" font-size="13px" font-style="normal" font-weight="bold" text-decoration="none" x="518.646240234375" y="379.5">ButtonPanel</text></g></g><g transform="translate(-230,-102) scale(1,1)"><g><path fill="none" stroke="none"/><text fill="#000000" stroke="none" font-family="Arial" font-size="13px" font-style="normal" font-weight="normal" text-decoration="none" x="429" y="402.5">-ButtonCodes: uint8_t[NumberOfButtons]</text></g></g><g transform="translate(-230,-102) scale(1,1)"><g><path fill="none" stroke="none"/><text fill="#000000" stroke="none" font-family="Arial" font-size="13px" font-style="normal" font-weight="normal" text-decoration="none" x="429" y="417.5">-CurrentInput: Buttons[3]</text></g></g><g transform="translate(-230,-102) scale(1,1)"><g><path fill="none" stroke="none"/><text fill="#000000" stroke="none" font-family="Arial" font-size="13px" font-style="normal" font-weight="normal" text-decoration="none" x="429" y="440.5">+init(ButtonCodes: uint8_t*): void</text></g></g><g transform="translate(-230,-102) scale(1,1)"><path fill="none" stroke="#000000" d="M 555 359 L 555 304" stroke-miterlimit="10" stroke-dasharray="3"/></g><g transform="translate(-230,-102) scale(1,1)"><path fill="#FFFFFF" stroke="none" d="M 563.419035512032 324.3253497152483 L 555 304 L 546.580964487968 324.3253497152483"/></g><g transform="translate(-230,-102) scale(1,1)"><path fill="none" stroke="#000000" d="M 563.419035512032 324.3253497152483 L 555 304 L 546.580964487968 324.3253497152483 L 563.419035512032 324.3253497152483" stroke-miterlimit="10"/></g><g transform="translate(-230,-102) scale(1,1)"><rect fill="#C0C0C0" stroke="none" x="431" y="119" width="268.81591796875" height="87" opacity="0.2"/></g><g transform="translate(-230,-102) scale(1,1)"><rect fill="#ffffff" stroke="none" x="424" y="112" width="268.81591796875" height="87"/></g><g transform="translate(-230,-102) scale(1,1)"><path fill="none" stroke="#000000" d="M 424 112 L 692.81591796875 112 L 692.81591796875 199 L 424 199 L 424 112 Z Z" stroke-miterlimit="10"/></g><g transform="translate(-230,-102) scale(1,1)"><path fill="none" stroke="#000000" d="M 424 137 L 692.81591796875 137" stroke-miterlimit="10"/></g><g transform="translate(-230,-102) scale(1,1)"><path fill="none" stroke="#000000" d="M 424 147 L 692.81591796875 147" stroke-miterlimit="10"/></g><g transform="translate(-230,-102) scale(1,1)"><g><path fill="none" stroke="none"/><text fill="#000000" stroke="none" font-family="Arial" font-size="13px" font-style="normal" font-weight="bold" text-decoration="none" x="511.4384765625" y="131.5">InterruptHandler</text></g></g><g transform="translate(-230,-102) scale(1,1)"><g><path fill="none" stroke="none"/><text fill="#000000" stroke="none" font-family="Arial" font-size="13px" font-style="normal" font-weight="normal" text-decoration="none" x="429" y="164.5">+ButtonPressed(): void</text></g></g><g transform="translate(-230,-102) scale(1,1)"><g><path fill="none" stroke="none"/><text fill="#000000" stroke="none" font-family="Arial" font-size="13px" font-style="normal" font-weight="normal" text-decoration="none" x="429" y="179.5">+DataRecv(): void</text></g></g><g transform="translate(-230,-102) scale(1,1)"><g><path fill="none" stroke="none"/><text fill="#000000" stroke="none" font-family="Arial" font-size="13px" font-style="normal" font-weight="normal" text-decoration="none" x="429" y="194.5">+SendData(data: uint8_t*, len: uint16_t): void</text></g></g><g transform="translate(-230,-102) scale(1,1)"><path fill="none" stroke="#000000" d="M 440 272 L 353 272" stroke-miterlimit="10"/></g><g transform="translate(-230,-102) scale(1,1)"><path fill="none" stroke="#000000" d="M 363.16267485762415 267.790482243984 L 353 272 L 363.16267485762415 276.209517756016" stroke-miterlimit="10"/></g><g transform="translate(-230,-102) scale(1,1)"><path fill="none" stroke="#000000" d="M 424 366 L 353 366" stroke-miterlimit="10"/></g><g transform="translate(-230,-102) scale(1,1)"><path fill="#000000" stroke="none" d="M 363.16267485762415 361.790482243984 L 353 366 L 363.16267485762415 370.209517756016 L 375 366"/></g><g transform="translate(-230,-102) scale(1,1)"><path fill="none" stroke="#000000" d="M 363.16267485762415 361.790482243984 L 353 366 L 363.16267485762415 370.209517756016 L 375 366 L 363.16267485762415 361.790482243984" stroke-miterlimit="10"/></g><g transform="translate(-230,-102) scale(1,1)"><rect fill="#C0C0C0" stroke="none" x="815" y="391" width="240.58154296875" height="83" opacity="0.2"/></g><g transform="translate(-230,-102) scale(1,1)"><rect fill="#ffffff" stroke="none" x="808" y="384" width="240.58154296875" height="83"/></g><g transform="translate(-230,-102) scale(1,1)"><path fill="none" stroke="#000000" d="M 808 384 L 1048.58154296875 384 L 1048.58154296875 467 L 808 467 L 808 384 Z Z" stroke-miterlimit="10"/></g><g transform="translate(-230,-102) scale(1,1)"><path fill="none" stroke="#000000" d="M 808 422 L 1048.58154296875 422" stroke-miterlimit="10"/></g><g transform="translate(-230,-102) scale(1,1)"><g><path fill="none" stroke="none"/><text fill="#000000" stroke="none" font-family="Arial" font-size="13px" font-style="normal" font-weight="normal" text-decoration="none" x="896.13037109375" y="401.5">«interface»</text></g></g><g transform="translate(-230,-102) scale(1,1)"><g><path fill="none" stroke="none"/><text fill="#000000" stroke="none" font-family="Arial" font-size="13px" font-style="normal" font-weight="bold" text-decoration="none" x="881.686279296875" y="416.5">DisplayInterface</text></g></g><g transform="translate(-230,-102) scale(1,1)"><g><path fill="none" stroke="none"/><text fill="#000000" stroke="none" font-family="Arial" font-size="13px" font-style="normal" font-weight="normal" text-decoration="none" x="813" y="439.5">+GetMaxLenSize(): uint8_t</text></g></g><g transform="translate(-230,-102) scale(1,1)"><g><path fill="none" stroke="none"/><text fill="#000000" stroke="none" font-family="Arial" font-size="13px" font-style="normal" font-weight="normal" text-decoration="none" x="813" y="454.5">+PrintString(str: char*, len: uint8_t): bool</text></g></g><g transform="translate(-230,-102) scale(1,1)"><rect fill="#C0C0C0" stroke="none" x="839" y="215" width="186.404296875" height="70" opacity="0.2"/></g><g transform="translate(-230,-102) scale(1,1)"><rect fill="#ffffff" stroke="none" x="832" y="208" width="186.404296875" height="70"/></g><g transform="translate(-230,-102) scale(1,1)"><path fill="none" stroke="#000000" d="M 832 208 L 1018.404296875 208 L 1018.404296875 278 L 832 278 L 832 208 Z Z" stroke-miterlimit="10"/></g><g transform="translate(-230,-102) scale(1,1)"><path fill="none" stroke="#000000" d="M 832 233 L 1018.404296875 233" stroke-miterlimit="10"/></g><g transform="translate(-230,-102) scale(1,1)"><path fill="none" stroke="#000000" d="M 832 256 L 1018.404296875 256" stroke-miterlimit="10"/></g><g transform="translate(-230,-102) scale(1,1)"><g><path fill="none" stroke="none"/><text fill="#000000" stroke="none" font-family="Arial" font-size="13px" font-style="normal" font-weight="bold" text-decoration="none" x="885.094482421875" y="227.5">PhoneDisplay</text></g></g><g transform="translate(-230,-102) scale(1,1)"><g><path fill="none" stroke="none"/><text fill="#000000" stroke="none" font-family="Arial" font-size="13px" font-style="normal" font-weight="normal" text-decoration="none" x="837" y="250.5">-PrintingString: char*</text></g></g><g transform="translate(-230,-102) scale(1,1)"><g><path fill="none" stroke="none"/><text fill="#000000" stroke="none" font-family="Arial" font-size="13px" font-style="normal" font-weight="normal" text-decoration="none" x="837" y="273.5">+init(max_length: uint8_t): void</text></g></g><g transform="translate(-230,-102) scale(1,1)"><path fill="none" stroke="#000000" d="M 926 279 L 927 383" stroke-miterlimit="10" stroke-dasharray="3"/></g><g transform="translate(-230,-102) scale(1,1)"><path fill="#FFFFFF" stroke="none" d="M 918.3859266335625 362.7565383385738 L 927 383 L 935.223219324438 362.59464129346924"/></g><g transform="translate(-230,-102) scale(1,1)"><path fill="none" stroke="#000000" d="M 918.3859266335625 362.7565383385738 L 927 383 L 935.223219324438 362.59464129346924 L 918.3859266335625 362.7565383385738" stroke-miterlimit="10"/></g><g transform="translate(-230,-102) scale(1,1)"><rect fill="#C0C0C0" stroke="none" x="263" y="519" width="313.80810546875" height="160" opacity="0.2"/></g><g transform="translate(-230,-102) scale(1,1)"><rect fill="#ffffff" stroke="none" x="256" y="512" width="313.80810546875" height="160"/></g><g transform="translate(-230,-102) scale(1,1)"><path fill="none" stroke="#000000" d="M 256 512 L 569.80810546875 512 L 569.80810546875 672 L 256 672 L 256 512 Z Z" stroke-miterlimit="10"/></g><g transform="translate(-230,-102) scale(1,1)"><path fill="none" stroke="#000000" d="M 256 537 L 569.80810546875 537" stroke-miterlimit="10"/></g><g transform="translate(-230,-102) scale(1,1)"><path fill="none" stroke="#000000" d="M 256 560 L 569.80810546875 560" stroke-miterlimit="10"/></g><g transform="translate(-230,-102) scale(1,1)"><g><path fill="none" stroke="none"/><text fill="#000000" stroke="none" font-family="Arial" font-size="13px" font-style="normal" font-weight="bold" text-decoration="none" x="372.2060546875" y="531.5">ATSprocessor</text></g></g><g transform="translate(-230,-102) scale(1,1)"><g><path fill="none" stroke="none"/><text fill="#000000" stroke="none" font-family="Arial" font-size="13px" font-style="normal" font-weight="normal" text-decoration="none" x="261" y="554.5">-connections: uint16_t[300]</text></g></g><g transform="translate(-230,-102) scale(1,1)"><g><path fill="none" stroke="none"/><text fill="#000000" stroke="none" font-family="Arial" font-size="13px" font-style="normal" font-weight="normal" text-decoration="none" x="261" y="577.5">+init(): void</text></g></g><g transform="translate(-230,-102) scale(1,1)"><g><path fill="none" stroke="none"/><text fill="#000000" stroke="none" font-family="Arial" font-size="13px" font-style="normal" font-weight="normal" text-decoration="none" x="261" y="592.5">+TryCall(from_num: uint16_t, to_num: uint16_t): bool</text></g></g><g transform="translate(-230,-102) scale(1,1)"><g><path fill="none" stroke="none"/><text fill="#000000" stroke="none" font-family="Arial" font-size="13px" font-style="normal" font-weight="normal" text-decoration="none" x="261" y="607.5">+CloseCall(num: uint16_t): void</text></g></g><g transform="translate(-230,-102) scale(1,1)"><g><path fill="none" stroke="none"/><text fill="#000000" stroke="none" font-family="Arial" font-size="13px" font-style="normal" font-weight="normal" text-decoration="none" x="261" y="622.5">+SetupLine(num: uint16_t): void</text></g></g><g transform="translate(-230,-102) scale(1,1)"><g><path fill="none" stroke="none"/><text fill="#000000" stroke="none" font-family="Arial" font-size="13px" font-style="normal" font-weight="normal" text-decoration="none" x="261" y="637.5">-generateNumbers(): void</text></g></g><g transform="translate(-230,-102) scale(1,1)"><g><path fill="none" stroke="none"/><text fill="#000000" stroke="none" font-family="Arial" font-size="13px" font-style="normal" font-weight="normal" text-decoration="none" x="261" y="652.5">-CallCityATS(from_num: uint16_t): void</text></g></g><g transform="translate(-230,-102) scale(1,1)"><g><path fill="none" stroke="none"/><text fill="#000000" stroke="none" font-family="Arial" font-size="13px" font-style="normal" font-weight="normal" text-decoration="none" x="261" y="667.5">-CityATScallRecv(): void</text></g></g><g transform="translate(-230,-102) scale(1,1)"><rect fill="#C0C0C0" stroke="none" x="631" y="671" width="268.81591796875" height="120" opacity="0.2"/></g><g transform="translate(-230,-102) scale(1,1)"><rect fill="#ffffff" stroke="none" x="624" y="664" width="268.81591796875" height="120"/></g><g transform="translate(-230,-102) scale(1,1)"><path fill="none" stroke="#000000" d="M 624 664 L 892.81591796875 664 L 892.81591796875 784 L 624 784 L 624 664 Z Z" stroke-miterlimit="10"/></g><g transform="translate(-230,-102) scale(1,1)"><path fill="none" stroke="#000000" d="M 624 702 L 892.81591796875 702" stroke-miterlimit="10"/></g><g transform="translate(-230,-102) scale(1,1)"><g><path fill="none" stroke="none"/><text fill="#000000" stroke="none" font-family="Arial" font-size="13px" font-style="normal" font-weight="normal" text-decoration="none" x="726.24755859375" y="681.5">«interface»</text></g></g><g transform="translate(-230,-102) scale(1,1)"><g><path fill="none" stroke="none"/><text fill="#000000" stroke="none" font-family="Arial" font-size="13px" font-style="normal" font-weight="bold" text-decoration="none" x="715.770751953125" y="696.5">AbstractPhone</text></g></g><g transform="translate(-230,-102) scale(1,1)"><g><path fill="none" stroke="none"/><text fill="#000000" stroke="none" font-family="Arial" font-size="13px" font-style="normal" font-weight="normal" text-decoration="none" x="629" y="719.5">+SetAddr(addr: uint16_t): void</text></g></g><g transform="translate(-230,-102) scale(1,1)"><g><path fill="none" stroke="none"/><text fill="#000000" stroke="none" font-family="Arial" font-size="13px" font-style="normal" font-weight="normal" text-decoration="none" x="629" y="734.5">+GetAddr(): uint16_t</text></g></g><g transform="translate(-230,-102) scale(1,1)"><g><path fill="none" stroke="none"/><text fill="#000000" stroke="none" font-family="Arial" font-size="13px" font-style="normal" font-weight="normal" text-decoration="none" x="629" y="749.5">+CallData(data: uint8_t*, len: uint16_t): void</text></g></g><g transform="translate(-230,-102) scale(1,1)"><g><path fill="none" stroke="none"/><text fill="#000000" stroke="none" font-family="Arial" font-size="13px" font-style="normal" font-weight="normal" text-decoration="none" x="629" y="764.5">+EndCall(): void</text></g></g><g transform="translate(-230,-102) scale(1,1)"><g><path fill="none" stroke="none"/><text fill="#000000" stroke="none" font-family="Arial" font-size="13px" font-style="normal" font-weight="normal" text-decoration="none" x="629" y="779.5">+StartCall(addr: uint16_t): bool</text></g></g><g transform="translate(-230,-102) scale(1,1)"><rect fill="#C0C0C0" stroke="none" x="719" y="503" width="92.83349609375" height="57" opacity="0.2"/></g><g transform="translate(-230,-102) scale(1,1)"><rect fill="#ffffff" stroke="none" x="712" y="496" width="92.83349609375" height="57"/></g><g transform="translate(-230,-102) scale(1,1)"><path fill="none" stroke="#000000" d="M 712 496 L 804.83349609375 496 L 804.83349609375 553 L 712 553 L 712 496 Z Z" stroke-miterlimit="10"/></g><g transform="translate(-230,-102) scale(1,1)"><path fill="none" stroke="#000000" d="M 712 521 L 804.83349609375 521" stroke-miterlimit="10"/></g><g transform="translate(-230,-102) scale(1,1)"><path fill="none" stroke="#000000" d="M 712 544 L 804.83349609375 544" stroke-miterlimit="10"/></g><g transform="translate(-230,-102) scale(1,1)"><g><path fill="none" stroke="none"/><text fill="#000000" stroke="none" font-family="Arial" font-size="13px" font-style="normal" font-weight="bold" text-decoration="none" x="739.621337890625" y="515.5">Phone</text></g></g><g transform="translate(-230,-102) scale(1,1)"><g><path fill="none" stroke="none"/><text fill="#000000" stroke="none" font-family="Arial" font-size="13px" font-style="normal" font-weight="normal" text-decoration="none" x="717" y="538.5">-addr: uint16_t</text></g></g><g transform="translate(-230,-102) scale(1,1)"><path fill="none" stroke="#000000" d="M 758 554 L 758 663" stroke-miterlimit="10" stroke-dasharray="3"/></g><g transform="translate(-230,-102) scale(1,1)"><path fill="#FFFFFF" stroke="none" d="M 749.580964487968 642.6746502847517 L 758 663 L 766.419035512032 642.6746502847517"/></g><g transform="translate(-230,-102) scale(1,1)"><path fill="none" stroke="#000000" d="M 749.580964487968 642.6746502847517 L 758 663 L 766.419035512032 642.6746502847517 L 749.580964487968 642.6746502847517" stroke-miterlimit="10"/></g><g transform="translate(-230,-102) scale(1,1)"><path fill="none" stroke="#000000" d="M 557 231 L 557 200" stroke-miterlimit="10"/></g><g transform="translate(-230,-102) scale(1,1)"><path fill="none" stroke="#000000" d="M 561.209517756016 210.16267485762415 L 557 200 L 552.790482243984 210.16267485762415" stroke-miterlimit="10"/></g><g transform="translate(-230,-102) scale(1,1)"><path fill="none" stroke="#000000" d="M 768 496 L 768 160 L 693 160" stroke-miterlimit="10"/></g><g transform="translate(-230,-102) scale(1,1)"><path fill="none" stroke="#000000" d="M 703.1626748576241 155.790482243984 L 693 160 L 703.1626748576241 164.209517756016" stroke-miterlimit="10"/></g><g transform="translate(-230,-102) scale(1,1)"><path fill="none" stroke="#000000" d="M 768 496 L 768 264 L 673 264" stroke-miterlimit="10"/></g><g transform="translate(-230,-102) scale(1,1)"><path fill="none" stroke="#000000" d="M 683.1626748576241 259.790482243984 L 673 264 L 683.1626748576241 268.209517756016" stroke-miterlimit="10"/></g><g transform="translate(-230,-102) scale(1,1)"><path fill="none" stroke="#000000" d="M 805 528 L 936 528 L 936 467" stroke-miterlimit="10"/></g><g transform="translate(-230,-102) scale(1,1)"><path fill="none" stroke="#000000" d="M 940.209517756016 477.16267485762415 L 936 467 L 931.790482243984 477.16267485762415" stroke-miterlimit="10"/></g><g transform="translate(-230,-102) scale(1,1)"><path fill="none" stroke="#000000" d="M 412 672 L 412 728 L 624 728" stroke-miterlimit="10"/></g><g transform="translate(-230,-102) scale(1,1)"><g><path fill="none" stroke="none"/><text fill="#000000" stroke="none" font-family="Arial" font-size="13px" font-style="normal" font-weight="normal" text-decoration="none" x="395.5" y="699.5">1</text></g></g><g transform="translate(-230,-102) scale(1,1)"><g><path fill="none" stroke="none"/><text fill="#000000" stroke="none" font-family="Arial" font-size="13px" font-style="normal" font-weight="normal" text-decoration="none" x="592.5" y="746.5">1..*</text></g></g></g></svg>