<svg version="1.1" xmlns="http://www.w3.org/2000/svg" xmlns:xlink="http://www.w3.org/1999/xlink" width="416.99169921875" height="243"><defs/><g><text fill="#eeeeee" stroke="none" font-family="Arial" font-size="24px" font-style="normal" font-weight="normal" text-decoration="none" x="0" y="0">UNREGISTERED</text><text fill="#eeeeee" stroke="none" font-family="Arial" font-size="24px" font-style="normal" font-weight="normal" text-decoration="none" x="0" y="30">UNREGISTERED</text><text fill="#eeeeee" stroke="none" font-family="Arial" font-size="24px" font-style="normal" font-weight="normal" text-decoration="none" x="0" y="60">UNREGISTERED</text><text fill="#eeeeee" stroke="none" font-family="Arial" font-size="24px" font-style="normal" font-weight="normal" text-decoration="none" x="0" y="90">UNREGISTERED</text><text fill="#eeeeee" stroke="none" font-family="Arial" font-size="24px" font-style="normal" font-weight="normal" text-decoration="none" x="0" y="120">UNREGISTERED</text><text fill="#eeeeee" stroke="none" font-family="Arial" font-size="24px" font-style="normal" font-weight="normal" text-decoration="none" x="0" y="150">UNREGISTERED</text><text fill="#eeeeee" stroke="none" font-family="Arial" font-size="24px" font-style="normal" font-weight="normal" text-decoration="none" x="0" y="180">UNREGISTERED</text><text fill="#eeeeee" stroke="none" font-family="Arial" font-size="24px" font-style="normal" font-weight="normal" text-decoration="none" x="0" y="210">UNREGISTERED</text><text fill="#eeeeee" stroke="none" font-family="Arial" font-size="24px" font-style="normal" font-weight="normal" text-decoration="none" x="0" y="240">UNREGISTERED</text><text fill="#eeeeee" stroke="none" font-family="Arial" font-size="24px" font-style="normal" font-weight="normal" text-decoration="none" x="200" y="0">UNREGISTERED</text><text fill="#eeeeee" stroke="none" font-family="Arial" font-size="24px" font-style="normal" font-weight="normal" text-decoration="none" x="200" y="30">UNREGISTERED</text><text fill="#eeeeee" stroke="none" font-family="Arial" font-size="24px" font-style="normal" font-weight="normal" text-decoration="none" x="200" y="60">UNREGISTERED</text><text fill="#eeeeee" stroke="none" font-family="Arial" font-size="24px" font-style="normal" font-weight="normal" text-decoration="none" x="200" y="90">UNREGISTERED</text><text fill="#eeeeee" stroke="none" font-family="Arial" font-size="24px" font-style="normal" font-weight="normal" text-decoration="none" x="200" y="120">UNREGISTERED</text><text fill="#eeeeee" stroke="none" font-family="Arial" font-size="24px" font-style="normal" font-weight="normal" text-decoration="none" x="200" y="150">UNREGISTERED</text><text fill="#eeeeee" stroke="none" font-family="Arial" font-size="24px" font-style="normal" font-weight="normal" text-decoration="none" x="200" y="180">UNREGISTERED</text><text fill="#eeeeee" stroke="none" font-family="Arial" font-size="24px" font-style="normal" font-weight="normal" text-decoration="none" x="200" y="210">UNREGISTERED</text><text fill="#eeeeee" stroke="none" font-family="Arial" font-size="24px" font-style="normal" font-weight="normal" text-decoration="none" x="200" y="240">UNREGISTERED</text><text fill="#eeeeee" stroke="none" font-family="Arial" font-size="24px" font-style="normal" font-weight="normal" text-decoration="none" x="400" y="0">UNREGISTERED</text><text fill="#eeeeee" stroke="none" font-family="Arial" font-size="24px" font-style="normal" font-weight="normal" text-decoration="none" x="400" y="30">UNREGISTERED</text><text fill="#eeeeee" stroke="none" font-family="Arial" font-size="24px" font-style="normal" font-weight="normal" text-decoration="none" x="400" y="60">UNREGISTERED</text><text fill="#eeeeee" stroke="none" font-family="Arial" font-size="24px" font-style="normal" font-weight="normal" text-decoration="none" x="400" y="90">UNREGISTERED</text><text fill="#eeeeee" stroke="none" font-family="Arial" font-size="24px" font-style="normal" font-weight="normal" text-decoration="none" x="400" y="120">UNREGISTERED</text><text fill="#eeeeee" stroke="none" font-family="Arial" font-size="24px" font-style="normal" font-weight="normal" text-decoration="none" x="400" y="150">UNREGISTERED</text><text fill="#eeeeee" stroke="none" font-family="Arial" font-size="24px" font-style="normal" font-weight="normal" text-decoration="none" x="400" y="180">UNREGISTERED</text><text fill="#eeeeee" stroke="none" font-family="Arial" font-size="24px" font-style="normal" font-weight="normal" text-decoration="none" x="400" y="210">UNREGISTERED</text><text fill="#eeeeee" stroke="none" font-family="Arial" font-size="24px" font-style="normal" font-weight="normal" text-decoration="none" x="400" y="240">UNREGISTERED</text><g transform="translate(-374,-238) scale(1,1)"><rect fill="#C0C0C0" stroke="none" x="503" y="255" width="40.203125" height="15" opacity="0.2"/></g><g transform="translate(-374,-238) scale(1,1)"><rect fill="#C0C0C0" stroke="none" x="503" y="269" width="100.5078125" height="25" opacity="0.2"/></g><g transform="translate(-374,-238) scale(1,1)"><rect fill="#ffffff" stroke="none" x="496" y="263" width="100.5078125" height="24"/></g><g transform="translate(-374,-238) scale(1,1)"><path fill="none" stroke="#000000" d="M 496 263 L 596.5078125 263 L 596.5078125 287 L 496 287 L 496 263 Z Z" stroke-miterlimit="10"/></g><g transform="translate(-374,-238) scale(1,1)"><rect fill="#ffffff" stroke="none" x="496" y="248" width="40.203125" height="15"/></g><g transform="translate(-374,-238) scale(1,1)"><path fill="none" stroke="#000000" d="M 496 248 L 536.203125 248 L 536.203125 263 L 496 263 L 496 248 Z Z" stroke-miterlimit="10"/></g><g transform="translate(-374,-238) scale(1,1)"><rect fill="#ffffff" stroke="none" x="496" y="262" width="100.5078125" height="25"/></g><g transform="translate(-374,-238) scale(1,1)"><path fill="none" stroke="#000000" d="M 496 262 L 596.5078125 262 L 596.5078125 287 L 496 287 L 496 262 Z Z" stroke-miterlimit="10"/></g><g transform="translate(-374,-238) scale(1,1)"><g><path fill="none" stroke="none"/><text fill="#000000" stroke="none" font-family="Arial" font-size="13px" font-style="normal" font-weight="bold" text-decoration="none" x="503.75" y="282.5">ATS processor</text></g></g><g transform="translate(-374,-238) scale(1,1)"><rect fill="#C0C0C0" stroke="none" x="615" y="351" width="27.5966796875" height="15" opacity="0.2"/></g><g transform="translate(-374,-238) scale(1,1)"><rect fill="#C0C0C0" stroke="none" x="615" y="365" width="68.99169921875" height="25" opacity="0.2"/></g><g transform="translate(-374,-238) scale(1,1)"><rect fill="#ffffff" stroke="none" x="608" y="359" width="68.99169921875" height="24"/></g><g transform="translate(-374,-238) scale(1,1)"><path fill="none" stroke="#000000" d="M 608 359 L 676.99169921875 359 L 676.99169921875 383 L 608 383 L 608 359 Z Z" stroke-miterlimit="10"/></g><g transform="translate(-374,-238) scale(1,1)"><rect fill="#ffffff" stroke="none" x="608" y="344" width="27.5966796875" height="15"/></g><g transform="translate(-374,-238) scale(1,1)"><path fill="none" stroke="#000000" d="M 608 344 L 635.5966796875 344 L 635.5966796875 359 L 608 359 L 608 344 Z Z" stroke-miterlimit="10"/></g><g transform="translate(-374,-238) scale(1,1)"><rect fill="#ffffff" stroke="none" x="608" y="358" width="68.99169921875" height="25"/></g><g transform="translate(-374,-238) scale(1,1)"><path fill="none" stroke="#000000" d="M 608 358 L 676.99169921875 358 L 676.99169921875 383 L 608 383 L 608 358 Z Z" stroke-miterlimit="10"/></g><g transform="translate(-374,-238) scale(1,1)"><g><path fill="none" stroke="none"/><text fill="#000000" stroke="none" font-family="Arial" font-size="13px" font-style="normal" font-weight="bold" text-decoration="none" x="623.700439453125" y="378.5">Phone</text></g></g><g transform="translate(-374,-238) scale(1,1)"><rect fill="#C0C0C0" stroke="none" x="503" y="439" width="27.5966796875" height="15" opacity="0.2"/></g><g transform="translate(-374,-238) scale(1,1)"><rect fill="#C0C0C0" stroke="none" x="503" y="453" width="68.99169921875" height="25" opacity="0.2"/></g><g transform="translate(-374,-238) scale(1,1)"><rect fill="#ffffff" stroke="none" x="496" y="447" width="68.99169921875" height="24"/></g><g transform="translate(-374,-238) scale(1,1)"><path fill="none" stroke="#000000" d="M 496 447 L 564.99169921875 447 L 564.99169921875 471 L 496 471 L 496 447 Z Z" stroke-miterlimit="10"/></g><g transform="translate(-374,-238) scale(1,1)"><rect fill="#ffffff" stroke="none" x="496" y="432" width="27.5966796875" height="15"/></g><g transform="translate(-374,-238) scale(1,1)"><path fill="none" stroke="#000000" d="M 496 432 L 523.5966796875 432 L 523.5966796875 447 L 496 447 L 496 432 Z Z" stroke-miterlimit="10"/></g><g transform="translate(-374,-238) scale(1,1)"><rect fill="#ffffff" stroke="none" x="496" y="446" width="68.99169921875" height="25"/></g><g transform="translate(-374,-238) scale(1,1)"><path fill="none" stroke="#000000" d="M 496 446 L 564.99169921875 446 L 564.99169921875 471 L 496 471 L 496 446 Z Z" stroke-miterlimit="10"/></g><g transform="translate(-374,-238) scale(1,1)"><g><path fill="none" stroke="none"/><text fill="#000000" stroke="none" font-family="Arial" font-size="13px" font-style="normal" font-weight="bold" text-decoration="none" x="508.45361328125" y="466.5">Buttons</text></g></g><g transform="translate(-374,-238) scale(1,1)"><rect fill="#C0C0C0" stroke="none" x="719" y="439" width="27.5966796875" height="15" opacity="0.2"/></g><g transform="translate(-374,-238) scale(1,1)"><rect fill="#C0C0C0" stroke="none" x="719" y="453" width="68.99169921875" height="25" opacity="0.2"/></g><g transform="translate(-374,-238) scale(1,1)"><rect fill="#ffffff" stroke="none" x="712" y="447" width="68.99169921875" height="24"/></g><g transform="translate(-374,-238) scale(1,1)"><path fill="none" stroke="#000000" d="M 712 447 L 780.99169921875 447 L 780.99169921875 471 L 712 471 L 712 447 Z Z" stroke-miterlimit="10"/></g><g transform="translate(-374,-238) scale(1,1)"><rect fill="#ffffff" stroke="none" x="712" y="432" width="27.5966796875" height="15"/></g><g transform="translate(-374,-238) scale(1,1)"><path fill="none" stroke="#000000" d="M 712 432 L 739.5966796875 432 L 739.5966796875 447 L 712 447 L 712 432 Z Z" stroke-miterlimit="10"/></g><g transform="translate(-374,-238) scale(1,1)"><rect fill="#ffffff" stroke="none" x="712" y="446" width="68.99169921875" height="25"/></g><g transform="translate(-374,-238) scale(1,1)"><path fill="none" stroke="#000000" d="M 712 446 L 780.99169921875 446 L 780.99169921875 471 L 712 471 L 712 446 Z Z" stroke-miterlimit="10"/></g><g transform="translate(-374,-238) scale(1,1)"><g><path fill="none" stroke="none"/><text fill="#000000" stroke="none" font-family="Arial" font-size="13px" font-style="normal" font-weight="bold" text-decoration="none" x="725.18359375" y="466.5">Display</text></g></g><g transform="translate(-374,-238) scale(1,1)"><rect fill="#C0C0C0" stroke="none" x="615" y="439" width="27.868359374999955" height="15" opacity="0.2"/></g><g transform="translate(-374,-238) scale(1,1)"><rect fill="#C0C0C0" stroke="none" x="615" y="453" width="69.6708984375" height="25" opacity="0.2"/></g><g transform="translate(-374,-238) scale(1,1)"><rect fill="#ffffff" stroke="none" x="608" y="447" width="69.6708984375" height="24"/></g><g transform="translate(-374,-238) scale(1,1)"><path fill="none" stroke="#000000" d="M 608 447 L 677.6708984375 447 L 677.6708984375 471 L 608 471 L 608 447 Z Z" stroke-miterlimit="10"/></g><g transform="translate(-374,-238) scale(1,1)"><rect fill="#ffffff" stroke="none" x="608" y="432" width="27.868359374999955" height="15"/></g><g transform="translate(-374,-238) scale(1,1)"><path fill="none" stroke="#000000" d="M 608 432 L 635.868359375 432 L 635.868359375 447 L 608 447 L 608 432 Z Z" stroke-miterlimit="10"/></g><g transform="translate(-374,-238) scale(1,1)"><rect fill="#ffffff" stroke="none" x="608" y="446" width="69.6708984375" height="25"/></g><g transform="translate(-374,-238) scale(1,1)"><path fill="none" stroke="#000000" d="M 608 446 L 677.6708984375 446 L 677.6708984375 471 L 608 471 L 608 446 Z Z" stroke-miterlimit="10"/></g><g transform="translate(-374,-238) scale(1,1)"><g><path fill="none" stroke="none"/><text fill="#000000" stroke="none" font-family="Arial" font-size="13px" font-style="normal" font-weight="bold" text-decoration="none" x="615.378662109375" y="466.5">Interrupts</text></g></g><g transform="translate(-374,-238) scale(1,1)"><path fill="none" stroke="#000000" d="M 642 431 L 642 384" stroke-miterlimit="10"/></g><g transform="translate(-374,-238) scale(1,1)"><path fill="#FFFFFF" stroke="none" d="M 635 391 C 635 387.1340064 638.1340064 384 642 384 C 645.8659936 384 649 387.1340064 649 391 C 649 394.8659936 645.8659936 398 642 398 C 638.1340064 398 635 394.8659936 635 391 Z"/></g><g transform="translate(-374,-238) scale(1,1)"><path fill="none" stroke="#000000" d="M 635 391 C 635 387.1340064 638.1340064 384 642 384 C 645.8659936 384 649 387.1340064 649 391 C 649 394.8659936 645.8659936 398 642 398 C 638.1340064 398 635 394.8659936 635 391 Z" stroke-miterlimit="10"/></g><g transform="translate(-374,-238) scale(1,1)"><path fill="none" stroke="#000000" d="M 642 398 L 642 384" stroke-miterlimit="10"/></g><g transform="translate(-374,-238) scale(1,1)"><path fill="none" stroke="#000000" d="M 649 391 L 635 391" stroke-miterlimit="10"/></g><g transform="translate(-374,-238) scale(1,1)"><path fill="none" stroke="#000000" d="M 728 432 L 728 368 L 677 368" stroke-miterlimit="10"/></g><g transform="translate(-374,-238) scale(1,1)"><path fill="#FFFFFF" stroke="none" d="M 677 368 C 677 364.1340064 680.1340064 361 684 361 C 687.8659936 361 691 364.1340064 691 368 C 691 371.8659936 687.8659936 375 684 375 C 680.1340064 375 677 371.8659936 677 368 Z"/></g><g transform="translate(-374,-238) scale(1,1)"><path fill="none" stroke="#000000" d="M 677 368 C 677 364.1340064 680.1340064 361 684 361 C 687.8659936 361 691 364.1340064 691 368 C 691 371.8659936 687.8659936 375 684 375 C 680.1340064 375 677 371.8659936 677 368 Z" stroke-miterlimit="10"/></g><g transform="translate(-374,-238) scale(1,1)"><path fill="none" stroke="#000000" d="M 691 368 L 677 368" stroke-miterlimit="10"/></g><g transform="translate(-374,-238) scale(1,1)"><path fill="none" stroke="#000000" d="M 684 361 L 684 375" stroke-miterlimit="10"/></g><g transform="translate(-374,-238) scale(1,1)"><path fill="none" stroke="#000000" d="M 504 432 L 504 368 L 608 368" stroke-miterlimit="10"/></g><g transform="translate(-374,-238) scale(1,1)"><path fill="#FFFFFF" stroke="none" d="M 594 368 C 594 364.1340064 597.1340064 361 601 361 C 604.8659936 361 608 364.1340064 608 368 C 608 371.8659936 604.8659936 375 601 375 C 597.1340064 375 594 371.8659936 594 368 Z"/></g><g transform="translate(-374,-238) scale(1,1)"><path fill="none" stroke="#000000" d="M 594 368 C 594 364.1340064 597.1340064 361 601 361 C 604.8659936 361 608 364.1340064 608 368 C 608 371.8659936 604.8659936 375 601 375 C 597.1340064 375 594 371.8659936 594 368 Z" stroke-miterlimit="10"/></g><g transform="translate(-374,-238) scale(1,1)"><path fill="none" stroke="#000000" d="M 594 368 L 608 368" stroke-miterlimit="10"/></g><g transform="translate(-374,-238) scale(1,1)"><path fill="none" stroke="#000000" d="M 601 375 L 601 361" stroke-miterlimit="10"/></g><g transform="translate(-374,-238) scale(1,1)"><path fill="none" stroke="#000000" d="M 597 280 L 624 280 L 624 344" stroke-miterlimit="10" stroke-dasharray="3"/></g><g transform="translate(-374,-238) scale(1,1)"><path fill="none" stroke="#000000" d="M 619.790482243984 333.83732514237585 L 624 344 L 628.209517756016 333.83732514237585" stroke-miterlimit="10"/></g><g transform="translate(-374,-238) scale(1,1)"><rect fill="#C0C0C0" stroke="none" x="391" y="351" width="31.623632812499977" height="15" opacity="0.2"/></g><g transform="translate(-374,-238) scale(1,1)"><rect fill="#C0C0C0" stroke="none" x="391" y="365" width="79.05908203125" height="25" opacity="0.2"/></g><g transform="translate(-374,-238) scale(1,1)"><rect fill="#ffffff" stroke="none" x="384" y="359" width="79.05908203125" height="24"/></g><g transform="translate(-374,-238) scale(1,1)"><path fill="none" stroke="#000000" d="M 384 359 L 463.05908203125 359 L 463.05908203125 383 L 384 383 L 384 359 Z Z" stroke-miterlimit="10"/></g><g transform="translate(-374,-238) scale(1,1)"><rect fill="#ffffff" stroke="none" x="384" y="344" width="31.623632812499977" height="15"/></g><g transform="translate(-374,-238) scale(1,1)"><path fill="none" stroke="#000000" d="M 384 344 L 415.6236328125 344 L 415.6236328125 359 L 384 359 L 384 344 Z Z" stroke-miterlimit="10"/></g><g transform="translate(-374,-238) scale(1,1)"><rect fill="#ffffff" stroke="none" x="384" y="358" width="79.05908203125" height="25"/></g><g transform="translate(-374,-238) scale(1,1)"><path fill="none" stroke="#000000" d="M 384 358 L 463.05908203125 358 L 463.05908203125 383 L 384 383 L 384 358 Z Z" stroke-miterlimit="10"/></g><g transform="translate(-374,-238) scale(1,1)"><g><path fill="none" stroke="none"/><text fill="#000000" stroke="none" font-family="Arial" font-size="13px" font-style="normal" font-weight="bold" text-decoration="none" x="393.90185546875" y="378.5">Debug I/O</text></g></g><g transform="translate(-374,-238) scale(1,1)"><path fill="none" stroke="#000000" d="M 496 280 L 400 280 L 400 344" stroke-miterlimit="10" stroke-dasharray="3"/></g><g transform="translate(-374,-238) scale(1,1)"><path fill="none" stroke="#000000" d="M 395.790482243984 333.83732514237585 L 400 344 L 404.209517756016 333.83732514237585" stroke-miterlimit="10"/></g></g></svg>