<svg version="1.1" xmlns="http://www.w3.org/2000/svg" xmlns:xlink="http://www.w3.org/1999/xlink" width="905" height="635"><defs/><g><text fill="#eeeeee" stroke="none" font-family="Arial" font-size="24px" font-style="normal" font-weight="normal" text-decoration="none" x="0" y="0">UNREGISTERED</text><text fill="#eeeeee" stroke="none" font-family="Arial" font-size="24px" font-style="normal" font-weight="normal" text-decoration="none" x="0" y="30">UNREGISTERED</text><text fill="#eeeeee" stroke="none" font-family="Arial" font-size="24px" font-style="normal" font-weight="normal" text-decoration="none" x="0" y="60">UNREGISTERED</text><text fill="#eeeeee" stroke="none" font-family="Arial" font-size="24px" font-style="normal" font-weight="normal" text-decoration="none" x="0" y="90">UNREGISTERED</text><text fill="#eeeeee" stroke="none" font-family="Arial" font-size="24px" font-style="normal" font-weight="normal" text-decoration="none" x="0" y="120">UNREGISTERED</text><text fill="#eeeeee" stroke="none" font-family="Arial" font-size="24px" font-style="normal" font-weight="normal" text-decoration="none" x="0" y="150">UNREGISTERED</text><text fill="#eeeeee" stroke="none" font-family="Arial" font-size="24px" font-style="normal" font-weight="normal" text-decoration="none" x="0" y="180">UNREGISTERED</text><text fill="#eeeeee" stroke="none" font-family="Arial" font-size="24px" font-style="normal" font-weight="normal" text-decoration="none" x="0" y="210">UNREGISTERED</text><text fill="#eeeeee" stroke="none" font-family="Arial" font-size="24px" font-style="normal" font-weight="normal" text-decoration="none" x="0" y="240">UNREGISTERED</text><text fill="#eeeeee" stroke="none" font-family="Arial" font-size="24px" font-style="normal" font-weight="normal" text-decoration="none" x="0" y="270">UNREGISTERED</text><text fill="#eeeeee" stroke="none" font-family="Arial" font-size="24px" font-style="normal" font-weight="normal" text-decoration="none" x="0" y="300">UNREGISTERED</text><text fill="#eeeeee" stroke="none" font-family="Arial" font-size="24px" font-style="normal" font-weight="normal" text-decoration="none" x="0" y="330">UNREGISTERED</text><text fill="#eeeeee" stroke="none" font-family="Arial" font-size="24px" font-style="normal" font-weight="normal" text-decoration="none" x="0" y="360">UNREGISTERED</text><text fill="#eeeeee" stroke="none" font-family="Arial" font-size="24px" font-style="normal" font-weight="normal" text-decoration="none" x="0" y="390">UNREGISTERED</text><text fill="#eeeeee" stroke="none" font-family="Arial" font-size="24px" font-style="normal" font-weight="normal" text-decoration="none" x="0" y="420">UNREGISTERED</text><text fill="#eeeeee" stroke="none" font-family="Arial" font-size="24px" font-style="normal" font-weight="normal" text-decoration="none" x="0" y="450">UNREGISTERED</text><text fill="#eeeeee" stroke="none" font-family="Arial" font-size="24px" font-style="normal" font-weight="normal" text-decoration="none" x="0" y="480">UNREGISTERED</text><text fill="#eeeeee" stroke="none" font-family="Arial" font-size="24px" font-style="normal" font-weight="normal" text-decoration="none" x="0" y="510">UNREGISTERED</text><text fill="#eeeeee" stroke="none" font-family="Arial" font-size="24px" font-style="normal" font-weight="normal" text-decoration="none" x="0" y="540">UNREGISTERED</text><text fill="#eeeeee" stroke="none" font-family="Arial" font-size="24px" font-style="normal" font-weight="normal" text-decoration="none" x="0" y="570">UNREGISTERED</text><text fill="#eeeeee" stroke="none" font-family="Arial" font-size="24px" font-style="normal" font-weight="normal" text-decoration="none" x="0" y="600">UNREGISTERED</text><text fill="#eeeeee" stroke="none" font-family="Arial" font-size="24px" font-style="normal" font-weight="normal" text-decoration="none" x="0" y="630">UNREGISTERED</text><text fill="#eeeeee" stroke="none" font-family="Arial" font-size="24px" font-style="normal" font-weight="normal" text-decoration="none" x="200" y="0">UNREGISTERED</text><text fill="#eeeeee" stroke="none" font-family="Arial" font-size="24px" font-style="normal" font-weight="normal" text-decoration="none" x="200" y="30">UNREGISTERED</text><text fill="#eeeeee" stroke="none" font-family="Arial" font-size="24px" font-style="normal" font-weight="normal" text-decoration="none" x="200" y="60">UNREGISTERED</text><text fill="#eeeeee" stroke="none" font-family="Arial" font-size="24px" font-style="normal" font-weight="normal" text-decoration="none" x="200" y="90">UNREGISTERED</text><text fill="#eeeeee" stroke="none" font-family="Arial" font-size="24px" font-style="normal" font-weight="normal" text-decoration="none" x="200" y="120">UNREGISTERED</text><text fill="#eeeeee" stroke="none" font-family="Arial" font-size="24px" font-style="normal" font-weight="normal" text-decoration="none" x="200" y="150">UNREGISTERED</text><text fill="#eeeeee" stroke="none" font-family="Arial" font-size="24px" font-style="normal" font-weight="normal" text-decoration="none" x="200" y="180">UNREGISTERED</text><text fill="#eeeeee" stroke="none" font-family="Arial" font-size="24px" font-style="normal" font-weight="normal" text-decoration="none" x="200" y="210">UNREGISTERED</text><text fill="#eeeeee" stroke="none" font-family="Arial" font-size="24px" font-style="normal" font-weight="normal" text-decoration="none" x="200" y="240">UNREGISTERED</text><text fill="#eeeeee" stroke="none" font-family="Arial" font-size="24px" font-style="normal" font-weight="normal" text-decoration="none" x="200" y="270">UNREGISTERED</text><text fill="#eeeeee" stroke="none" font-family="Arial" font-size="24px" font-style="normal" font-weight="normal" text-decoration="none" x="200" y="300">UNREGISTERED</text><text fill="#eeeeee" stroke="none" font-family="Arial" font-size="24px" font-style="normal" font-weight="normal" text-decoration="none" x="200" y="330">UNREGISTERED</text><text fill="#eeeeee" stroke="none" font-family="Arial" font-size="24px" font-style="normal" font-weight="normal" text-decoration="none" x="200" y="360">UNREGISTERED</text><text fill="#eeeeee" stroke="none" font-family="Arial" font-size="24px" font-style="normal" font-weight="normal" text-decoration="none" x="200" y="390">UNREGISTERED</text><text fill="#eeeeee" stroke="none" font-family="Arial" font-size="24px" font-style="normal" font-weight="normal" text-decoration="none" x="200" y="420">UNREGISTERED</text><text fill="#eeeeee" stroke="none" font-family="Arial" font-size="24px" font-style="normal" font-weight="normal" text-decoration="none" x="200" y="450">UNREGISTERED</text><text fill="#eeeeee" stroke="none" font-family="Arial" font-size="24px" font-style="normal" font-weight="normal" text-decoration="none" x="200" y="480">UNREGISTERED</text><text fill="#eeeeee" stroke="none" font-family="Arial" font-size="24px" font-style="normal" font-weight="normal" text-decoration="none" x="200" y="510">UNREGISTERED</text><text fill="#eeeeee" stroke="none" font-family="Arial" font-size="24px" font-style="normal" font-weight="normal" text-decoration="none" x="200" y="540">UNREGISTERED</text><text fill="#eeeeee" stroke="none" font-family="Arial" font-size="24px" font-style="normal" font-weight="normal" text-decoration="none" x="200" y="570">UNREGISTERED</text><text fill="#eeeeee" stroke="none" font-family="Arial" font-size="24px" font-style="normal" font-weight="normal" text-decoration="none" x="200" y="600">UNREGISTERED</text><text fill="#eeeeee" stroke="none" font-family="Arial" font-size="24px" font-style="normal" font-weight="normal" text-decoration="none" x="200" y="630">UNREGISTERED</text><text fill="#eeeeee" stroke="none" font-family="Arial" font-size="24px" font-style="normal" font-weight="normal" text-decoration="none" x="400" y="0">UNREGISTERED</text><text fill="#eeeeee" stroke="none" font-family="Arial" font-size="24px" font-style="normal" font-weight="normal" text-decoration="none" x="400" y="30">UNREGISTERED</text><text fill="#eeeeee" stroke="none" font-family="Arial" font-size="24px" font-style="normal" font-weight="normal" text-decoration="none" x="400" y="60">UNREGISTERED</text><text fill="#eeeeee" stroke="none" font-family="Arial" font-size="24px" font-style="normal" font-weight="normal" text-decoration="none" x="400" y="90">UNREGISTERED</text><text fill="#eeeeee" stroke="none" font-family="Arial" font-size="24px" font-style="normal" font-weight="normal" text-decoration="none" x="400" y="120">UNREGISTERED</text><text fill="#eeeeee" stroke="none" font-family="Arial" font-size="24px" font-style="normal" font-weight="normal" text-decoration="none" x="400" y="150">UNREGISTERED</text><text fill="#eeeeee" stroke="none" font-family="Arial" font-size="24px" font-style="normal" font-weight="normal" text-decoration="none" x="400" y="180">UNREGISTERED</text><text fill="#eeeeee" stroke="none" font-family="Arial" font-size="24px" font-style="normal" font-weight="normal" text-decoration="none" x="400" y="210">UNREGISTERED</text><text fill="#eeeeee" stroke="none" font-family="Arial" font-size="24px" font-style="normal" font-weight="normal" text-decoration="none" x="400" y="240">UNREGISTERED</text><text fill="#eeeeee" stroke="none" font-family="Arial" font-size="24px" font-style="normal" font-weight="normal" text-decoration="none" x="400" y="270">UNREGISTERED</text><text fill="#eeeeee" stroke="none" font-family="Arial" font-size="24px" font-style="normal" font-weight="normal" text-decoration="none" x="400" y="300">UNREGISTERED</text><text fill="#eeeeee" stroke="none" font-family="Arial" font-size="24px" font-style="normal" font-weight="normal" text-decoration="none" x="400" y="330">UNREGISTERED</text><text fill="#eeeeee" stroke="none" font-family="Arial" font-size="24px" font-style="normal" font-weight="normal" text-decoration="none" x="400" y="360">UNREGISTERED</text><text fill="#eeeeee" stroke="none" font-family="Arial" font-size="24px" font-style="normal" font-weight="normal" text-decoration="none" x="400" y="390">UNREGISTERED</text><text fill="#eeeeee" stroke="none" font-family="Arial" font-size="24px" font-style="normal" font-weight="normal" text-decoration="none" x="400" y="420">UNREGISTERED</text><text fill="#eeeeee" stroke="none" font-family="Arial" font-size="24px" font-style="normal" font-weight="normal" text-decoration="none" x="400" y="450">UNREGISTERED</text><text fill="#eeeeee" stroke="none" font-family="Arial" font-size="24px" font-style="normal" font-weight="normal" text-decoration="none" x="400" y="480">UNREGISTERED</text><text fill="#eeeeee" stroke="none" font-family="Arial" font-size="24px" font-style="normal" font-weight="normal" text-decoration="none" x="400" y="510">UNREGISTERED</text><text fill="#eeeeee" stroke="none" font-family="Arial" font-size="24px" font-style="normal" font-weight="normal" text-decoration="none" x="400" y="540">UNREGISTERED</text><text fill="#eeeeee" stroke="none" font-family="Arial" font-size="24px" font-style="normal" font-weight="normal" text-decoration="none" x="400" y="570">UNREGISTERED</text><text fill="#eeeeee" stroke="none" font-family="Arial" font-size="24px" font-style="normal" font-weight="normal" text-decoration="none" x="400" y="600">UNREGISTERED</text><text fill="#eeeeee" stroke="none" font-family="Arial" font-size="24px" font-style="normal" font-weight="normal" text-decoration="none" x="400" y="630">UNREGISTERED</text><text fill="#eeeeee" stroke="none" font-family="Arial" font-size="24px" font-style="normal" font-weight="normal" text-decoration="none" x="600" y="0">UNREGISTERED</text><text fill="#eeeeee" stroke="none" font-family="Arial" font-size="24px" font-style="normal" font-weight="normal" text-decoration="none" x="600" y="30">UNREGISTERED</text><text fill="#eeeeee" stroke="none" font-family="Arial" font-size="24px" font-style="normal" font-weight="normal" text-decoration="none" x="600" y="60">UNREGISTERED</text><text fill="#eeeeee" stroke="none" font-family="Arial" font-size="24px" font-style="normal" font-weight="normal" text-decoration="none" x="600" y="90">UNREGISTERED</text><text fill="#eeeeee" stroke="none" font-family="Arial" font-size="24px" font-style="normal" font-weight="normal" text-decoration="none" x="600" y="120">UNREGISTERED</text><text fill="#eeeeee" stroke="none" font-family="Arial" font-size="24px" font-style="normal" font-weight="normal" text-decoration="none" x="600" y="150">UNREGISTERED</text><text fill="#eeeeee" stroke="none" font-family="Arial" font-size="24px" font-style="normal" font-weight="normal" text-decoration="none" x="600" y="180">UNREGISTERED</text><text fill="#eeeeee" stroke="none" font-family="Arial" font-size="24px" font-style="normal" font-weight="normal" text-decoration="none" x="600" y="210">UNREGISTERED</text><text fill="#eeeeee" stroke="none" font-family="Arial" font-size="24px" font-style="normal" font-weight="normal" text-decoration="none" x="600" y="240">UNREGISTERED</text><text fill="#eeeeee" stroke="none" font-family="Arial" font-size="24px" font-style="normal" font-weight="normal" text-decoration="none" x="600" y="270">UNREGISTERED</text><text fill="#eeeeee" stroke="none" font-family="Arial" font-size="24px" font-style="normal" font-weight="normal" text-decoration="none" x="600" y="300">UNREGISTERED</text><text fill="#eeeeee" stroke="none" font-family="Arial" font-size="24px" font-style="normal" font-weight="normal" text-decoration="none" x="600" y="330">UNREGISTERED</text><text fill="#eeeeee" stroke="none" font-family="Arial" font-size="24px" font-style="normal" font-weight="normal" text-decoration="none" x="600" y="360">UNREGISTERED</text><text fill="#eeeeee" stroke="none" font-family="Arial" font-size="24px" font-style="normal" font-weight="normal" text-decoration="none" x="600" y="390">UNREGISTERED</text><text fill="#eeeeee" stroke="none" font-family="Arial" font-size="24px" font-style="normal" font-weight="normal" text-decoration="none" x="600" y="420">UNREGISTERED</text><text fill="#eeeeee" stroke="none" font-family="Arial" font-size="24px" font-style="normal" font-weight="normal" text-decoration="none" x="600" y="450">UNREGISTERED</text><text fill="#eeeeee" stroke="none" font-family="Arial" font-size="24px" font-style="normal" font-weight="normal" text-decoration="none" x="600" y="480">UNREGISTERED</text><text fill="#eeeeee" stroke="none" font-family="Arial" font-size="24px" font-style="normal" font-weight="normal" text-decoration="none" x="600" y="510">UNREGISTERED</text><text fill="#eeeeee" stroke="none" font-family="Arial" font-size="24px" font-style="normal" font-weight="normal" text-decoration="none" x="600" y="540">UNREGISTERED</text><text fill="#eeeeee" stroke="none" font-family="Arial" font-size="24px" font-style="normal" font-weight="normal" text-decoration="none" x="600" y="570">UNREGISTERED</text><text fill="#eeeeee" stroke="none" font-family="Arial" font-size="24px" font-style="normal" font-weight="normal" text-decoration="none" x="600" y="600">UNREGISTERED</text><text fill="#eeeeee" stroke="none" font-family="Arial" font-size="24px" font-style="normal" font-weight="normal" text-decoration="none" x="600" y="630">UNREGISTERED</text><text fill="#eeeeee" stroke="none" font-family="Arial" font-size="24px" font-style="normal" font-weight="normal" text-decoration="none" x="800" y="0">UNREGISTERED</text><text fill="#eeeeee" stroke="none" font-family="Arial" font-size="24px" font-style="normal" font-weight="normal" text-decoration="none" x="800" y="30">UNREGISTERED</text><text fill="#eeeeee" stroke="none" font-family="Arial" font-size="24px" font-style="normal" font-weight="normal" text-decoration="none" x="800" y="60">UNREGISTERED</text><text fill="#eeeeee" stroke="none" font-family="Arial" font-size="24px" font-style="normal" font-weight="normal" text-decoration="none" x="800" y="90">UNREGISTERED</text><text fill="#eeeeee" stroke="none" font-family="Arial" font-size="24px" font-style="normal" font-weight="normal" text-decoration="none" x="800" y="120">UNREGISTERED</text><text fill="#eeeeee" stroke="none" font-family="Arial" font-size="24px" font-style="normal" font-weight="normal" text-decoration="none" x="800" y="150">UNREGISTERED</text><text fill="#eeeeee" stroke="none" font-family="Arial" font-size="24px" font-style="normal" font-weight="normal" text-decoration="none" x="800" y="180">UNREGISTERED</text><text fill="#eeeeee" stroke="none" font-family="Arial" font-size="24px" font-style="normal" font-weight="normal" text-decoration="none" x="800" y="210">UNREGISTERED</text><text fill="#eeeeee" stroke="none" font-family="Arial" font-size="24px" font-style="normal" font-weight="normal" text-decoration="none" x="800" y="240">UNREGISTERED</text><text fill="#eeeeee" stroke="none" font-family="Arial" font-size="24px" font-style="normal" font-weight="normal" text-decoration="none" x="800" y="270">UNREGISTERED</text><text fill="#eeeeee" stroke="none" font-family="Arial" font-size="24px" font-style="normal" font-weight="normal" text-decoration="none" x="800" y="300">UNREGISTERED</text><text fill="#eeeeee" stroke="none" font-family="Arial" font-size="24px" font-style="normal" font-weight="normal" text-decoration="none" x="800" y="330">UNREGISTERED</text><text fill="#eeeeee" stroke="none" font-family="Arial" font-size="24px" font-style="normal" font-weight="normal" text-decoration="none" x="800" y="360">UNREGISTERED</text><text fill="#eeeeee" stroke="none" font-family="Arial" font-size="24px" font-style="normal" font-weight="normal" text-decoration="none" x="800" y="390">UNREGISTERED</text><text fill="#eeeeee" stroke="none" font-family="Arial" font-size="24px" font-style="normal" font-weight="normal" text-decoration="none" x="800" y="420">UNREGISTERED</text><text fill="#eeeeee" stroke="none" font-family="Arial" font-size="24px" font-style="normal" font-weight="normal" text-decoration="none" x="800" y="450">UNREGISTERED</text><text fill="#eeeeee" stroke="none" font-family="Arial" font-size="24px" font-style="normal" font-weight="normal" text-decoration="none" x="800" y="480">UNREGISTERED</text><text fill="#eeeeee" stroke="none" font-family="Arial" font-size="24px" font-style="normal" font-weight="normal" text-decoration="none" x="800" y="510">UNREGISTERED</text><text fill="#eeeeee" stroke="none" font-family="Arial" font-size="24px" font-style="normal" font-weight="normal" text-decoration="none" x="800" y="540">UNREGISTERED</text><text fill="#eeeeee" stroke="none" font-family="Arial" font-size="24px" font-style="normal" font-weight="normal" text-decoration="none" x="800" y="570">UNREGISTERED</text><text fill="#eeeeee" stroke="none" font-family="Arial" font-size="24px" font-style="normal" font-weight="normal" text-decoration="none" x="800" y="600">UNREGISTERED</text><text fill="#eeeeee" stroke="none" font-family="Arial" font-size="24px" font-style="normal" font-weight="normal" text-decoration="none" x="800" y="630">UNREGISTERED</text><g transform="translate(-102,-62) scale(1,1)"><path fill="#ffffff" stroke="none" d="M 182.79509250710228 201.68 C 182.79509250710228 196.886167936 186.68093483204774 193 191.474365234375 193 C 196.26779563670226 193 200.15363796164772 196.886167936 200.15363796164772 201.68 C 200.15363796164772 206.47383206400002 196.26779563670226 210.36 191.474365234375 210.36 C 186.68093483204774 210.36 182.79509250710228 206.47383206400002 182.79509250710228 201.68 Z"/></g><g transform="translate(-102,-62) scale(1,1)"><path fill="none" stroke="#000000" d="M 182.79509250710228 201.68 C 182.79509250710228 196.886167936 186.68093483204774 193 191.474365234375 193 C 196.26779563670226 193 200.15363796164772 196.886167936 200.15363796164772 201.68 C 200.15363796164772 206.47383206400002 196.26779563670226 210.36 191.474365234375 210.36 C 186.68093483204774 210.36 182.79509250710228 206.47383206400002 182.79509250710228 201.68 Z" stroke-miterlimit="10"/></g><g transform="translate(-102,-62) scale(1,1)"><path fill="none" stroke="#000000" d="M 191.474365234375 210.36 L 191.474365234375 227.64" stroke-miterlimit="10"/></g><g transform="translate(-102,-62) scale(1,1)"><path fill="none" stroke="#000000" d="M 182.28454705255683 216.84 L 200.66418341619317 216.84" stroke-miterlimit="10"/></g><g transform="translate(-102,-62) scale(1,1)"><path fill="none" stroke="#000000" d="M 191.474365234375 227.64 L 178.71072887073865 245" stroke-miterlimit="10"/></g><g transform="translate(-102,-62) scale(1,1)"><path fill="none" stroke="#000000" d="M 191.474365234375 227.64 L 204.23800159801135 245" stroke-miterlimit="10"/></g><g transform="translate(-102,-62) scale(1,1)"><g><path fill="none" stroke="none"/><text fill="#000000" stroke="none" font-family="Arial" font-size="13px" font-style="normal" font-weight="bold" text-decoration="none" x="166.42333984375" y="265.5">Человек</text></g></g><g transform="translate(-102,-62) scale(1,1)"><path fill="#ffffff" stroke="none" d="M 183.57048313210228 617.6800000000001 C 183.57048313210228 612.8861679360001 187.45632545704774 609 192.249755859375 609 C 197.04318626170226 609 200.92902858664772 612.8861679360001 200.92902858664772 617.6800000000001 C 200.92902858664772 622.473832064 197.04318626170226 626.36 192.249755859375 626.36 C 187.45632545704774 626.36 183.57048313210228 622.473832064 183.57048313210228 617.6800000000001 Z"/></g><g transform="translate(-102,-62) scale(1,1)"><path fill="none" stroke="#000000" d="M 183.57048313210228 617.6800000000001 C 183.57048313210228 612.8861679360001 187.45632545704774 609 192.249755859375 609 C 197.04318626170226 609 200.92902858664772 612.8861679360001 200.92902858664772 617.6800000000001 C 200.92902858664772 622.473832064 197.04318626170226 626.36 192.249755859375 626.36 C 187.45632545704774 626.36 183.57048313210228 622.473832064 183.57048313210228 617.6800000000001 Z" stroke-miterlimit="10"/></g><g transform="translate(-102,-62) scale(1,1)"><path fill="none" stroke="#000000" d="M 192.249755859375 626.36 L 192.249755859375 643.64" stroke-miterlimit="10"/></g><g transform="translate(-102,-62) scale(1,1)"><path fill="none" stroke="#000000" d="M 183.05993767755683 632.84 L 201.43957404119317 632.84" stroke-miterlimit="10"/></g><g transform="translate(-102,-62) scale(1,1)"><path fill="none" stroke="#000000" d="M 192.249755859375 643.64 L 179.48611949573865 661" stroke-miterlimit="10"/></g><g transform="translate(-102,-62) scale(1,1)"><path fill="none" stroke="#000000" d="M 192.249755859375 643.64 L 205.01339222301135 661" stroke-miterlimit="10"/></g><g transform="translate(-102,-62) scale(1,1)"><g><path fill="none" stroke="none"/><text fill="#000000" stroke="none" font-family="Arial" font-size="13px" font-style="normal" font-weight="bold" text-decoration="none" x="120.698974609375" y="681.5">Человек с номером 000</text></g></g><g transform="translate(-102,-62) scale(1,1)"><path fill="#C0C0C0" stroke="none" d="M 215 520 C 215 510.6111584 255.7420832 503 306 503 C 356.2579168 503 397 510.6111584 397 520 C 397 529.3888416 356.2579168 537 306 537 C 255.7420832 537 215 529.3888416 215 520 Z" opacity="0.2"/></g><g transform="translate(-102,-62) scale(1,1)"><path fill="#ffffff" stroke="none" d="M 208 513 C 208 503.6111584 248.7420832 496 299 496 C 349.2579168 496 390 503.6111584 390 513 C 390 522.3888416 349.2579168 530 299 530 C 248.7420832 530 208 522.3888416 208 513 Z"/></g><g transform="translate(-102,-62) scale(1,1)"><path fill="none" stroke="#000000" d="M 208 513 C 208 503.6111584 248.7420832 496 299 496 C 349.2579168 496 390 503.6111584 390 513 C 390 522.3888416 349.2579168 530 299 530 C 248.7420832 530 208 522.3888416 208 513 Z" stroke-miterlimit="10"/></g><g transform="translate(-102,-62) scale(1,1)"><g><path fill="none" stroke="none"/><text fill="#000000" stroke="none" font-family="Arial" font-size="13px" font-style="normal" font-weight="bold" text-decoration="none" x="243.810302734375" y="520">Завершить звонок</text></g></g><g transform="translate(-102,-62) scale(1,1)"><path fill="none" stroke="#000000" d="M 207 272 L 292 495" stroke-miterlimit="10"/></g><g transform="translate(-102,-62) scale(1,1)"><path fill="#C0C0C0" stroke="none" d="M 463 496 C 463 486.6111584 501.055792 479 548 479 C 594.944208 479 633 486.6111584 633 496 C 633 505.3888416 594.944208 513 548 513 C 501.055792 513 463 505.3888416 463 496 Z" opacity="0.2"/></g><g transform="translate(-102,-62) scale(1,1)"><path fill="#ffffff" stroke="none" d="M 456 489 C 456 479.6111584 494.055792 472 541 472 C 587.944208 472 626 479.6111584 626 489 C 626 498.3888416 587.944208 506 541 506 C 494.055792 506 456 498.3888416 456 489 Z"/></g><g transform="translate(-102,-62) scale(1,1)"><path fill="none" stroke="#000000" d="M 456 489 C 456 479.6111584 494.055792 472 541 472 C 587.944208 472 626 479.6111584 626 489 C 626 498.3888416 587.944208 506 541 506 C 494.055792 506 456 498.3888416 456 489 Z" stroke-miterlimit="10"/></g><g transform="translate(-102,-62) scale(1,1)"><g><path fill="none" stroke="none"/><text fill="#000000" stroke="none" font-family="Arial" font-size="13px" font-style="normal" font-weight="bold" text-decoration="none" x="489.568115234375" y="496">Положить трубку</text></g></g><g transform="translate(-102,-62) scale(1,1)"><path fill="none" stroke="#000000" d="M 391 504 L 455 498" stroke-miterlimit="10" stroke-dasharray="3"/></g><g transform="translate(-102,-62) scale(1,1)"><path fill="none" stroke="#000000" d="M 445.27461245403975 503.1397312265216 L 455 498 L 444.48877371283464 494.7574513203339" stroke-miterlimit="10"/></g><g transform="translate(-102,-62) scale(1,1)"><g><path fill="none" stroke="none"/><text fill="#000000" stroke="none" font-family="Arial" font-size="13px" font-style="normal" font-weight="normal" text-decoration="none" x="392.5" y="477.5">«include»</text></g></g><g transform="translate(-102,-62) scale(1,1)"><path fill="#C0C0C0" stroke="none" d="M 223 96 C 223 86.6111584 297.7684384 79 390 79 C 482.2315616 79 557 86.6111584 557 96 C 557 105.3888416 482.2315616 113 390 113 C 297.7684384 113 223 105.3888416 223 96 Z" opacity="0.2"/></g><g transform="translate(-102,-62) scale(1,1)"><path fill="#ffffff" stroke="none" d="M 216 89 C 216 79.6111584 290.7684384 72 383 72 C 475.2315616 72 550 79.6111584 550 89 C 550 98.3888416 475.2315616 106 383 106 C 290.7684384 106 216 98.3888416 216 89 Z"/></g><g transform="translate(-102,-62) scale(1,1)"><path fill="none" stroke="#000000" d="M 216 89 C 216 79.6111584 290.7684384 72 383 72 C 475.2315616 72 550 79.6111584 550 89 C 550 98.3888416 475.2315616 106 383 106 C 290.7684384 106 216 98.3888416 216 89 Z" stroke-miterlimit="10"/></g><g transform="translate(-102,-62) scale(1,1)"><g><path fill="none" stroke="none"/><text fill="#000000" stroke="none" font-family="Arial" font-size="13px" font-style="normal" font-weight="bold" text-decoration="none" x="277.60986328125" y="96">Позвонить в пределах учреждения</text></g></g><g transform="translate(-102,-62) scale(1,1)"><path fill="none" stroke="#000000" d="M 224 207 L 359 107" stroke-miterlimit="10"/></g><g transform="translate(-102,-62) scale(1,1)"><path fill="#C0C0C0" stroke="none" d="M 847 256 C 847 246.6111584 882.1456432 239 925.5 239 C 968.8543568 239 1004 246.6111584 1004 256 C 1004 265.3888416 968.8543568 273 925.5 273 C 882.1456432 273 847 265.3888416 847 256 Z" opacity="0.2"/></g><g transform="translate(-102,-62) scale(1,1)"><path fill="#ffffff" stroke="none" d="M 840 249 C 840 239.6111584 875.1456432 232 918.5 232 C 961.8543568 232 997 239.6111584 997 249 C 997 258.3888416 961.8543568 266 918.5 266 C 875.1456432 266 840 258.3888416 840 249 Z"/></g><g transform="translate(-102,-62) scale(1,1)"><path fill="none" stroke="#000000" d="M 840 249 C 840 239.6111584 875.1456432 232 918.5 232 C 961.8543568 232 997 239.6111584 997 249 C 997 258.3888416 961.8543568 266 918.5 266 C 875.1456432 266 840 258.3888416 840 249 Z" stroke-miterlimit="10"/></g><g transform="translate(-102,-62) scale(1,1)"><g><path fill="none" stroke="none"/><text fill="#000000" stroke="none" font-family="Arial" font-size="13px" font-style="normal" font-weight="bold" text-decoration="none" x="871.552734375" y="256">Поднять трубку</text></g></g><g transform="translate(-102,-62) scale(1,1)"><path fill="none" stroke="#000000" d="M 550 88 L 920 88 L 920 232" stroke-miterlimit="10" stroke-dasharray="3"/></g><g transform="translate(-102,-62) scale(1,1)"><path fill="none" stroke="#000000" d="M 915.790482243984 221.83732514237585 L 920 232 L 924.209517756016 221.83732514237585" stroke-miterlimit="10"/></g><g transform="translate(-102,-62) scale(1,1)"><g><path fill="none" stroke="none"/><text fill="#000000" stroke="none" font-family="Arial" font-size="13px" font-style="normal" font-weight="normal" text-decoration="none" x="912.5" y="84.5">«include»</text></g></g><g transform="translate(-102,-62) scale(1,1)"><path fill="#C0C0C0" stroke="none" d="M 391 144 C 391 134.6111584 455.4709888 127 535 127 C 614.5290112 127 679 134.6111584 679 144 C 679 153.3888416 614.5290112 161 535 161 C 455.4709888 161 391 153.3888416 391 144 Z" opacity="0.2"/></g><g transform="translate(-102,-62) scale(1,1)"><path fill="#ffffff" stroke="none" d="M 384 137 C 384 127.6111584 448.4709888 120 528 120 C 607.5290112 120 672 127.6111584 672 137 C 672 146.3888416 607.5290112 154 528 154 C 448.4709888 154 384 146.3888416 384 137 Z"/></g><g transform="translate(-102,-62) scale(1,1)"><path fill="none" stroke="#000000" d="M 384 137 C 384 127.6111584 448.4709888 120 528 120 C 607.5290112 120 672 127.6111584 672 137 C 672 146.3888416 607.5290112 154 528 154 C 448.4709888 154 384 146.3888416 384 137 Z" stroke-miterlimit="10"/></g><g transform="translate(-102,-62) scale(1,1)"><g><path fill="none" stroke="none"/><text fill="#000000" stroke="none" font-family="Arial" font-size="13px" font-style="normal" font-weight="bold" text-decoration="none" x="437.3173828125" y="144">Набрать номер отличный от 9</text></g></g><g transform="translate(-102,-62) scale(1,1)"><path fill="none" stroke="#000000" d="M 437 107 L 474 119" stroke-miterlimit="10" stroke-dasharray="3"/></g><g transform="translate(-102,-62) scale(1,1)"><path fill="none" stroke="#000000" d="M 463.0343757696681 119.86895640808841 L 474 119 L 465.63168777807397 111.86057771550362" stroke-miterlimit="10"/></g><g transform="translate(-102,-62) scale(1,1)"><g><path fill="none" stroke="none"/><text fill="#000000" stroke="none" font-family="Arial" font-size="13px" font-style="normal" font-weight="normal" text-decoration="none" x="382.5" y="123.5">«include»</text></g></g><g transform="translate(-102,-62) scale(1,1)"><path fill="#C0C0C0" stroke="none" d="M 335 323.5 C 335 312.1781616 410.4400112 303 503.5 303 C 596.5599888 303 672 312.1781616 672 323.5 C 672 334.8218384 596.5599888 344 503.5 344 C 410.4400112 344 335 334.8218384 335 323.5 Z" opacity="0.2"/></g><g transform="translate(-102,-62) scale(1,1)"><path fill="#ffffff" stroke="none" d="M 328 316.5 C 328 305.1781616 403.4400112 296 496.5 296 C 589.5599888 296 665 305.1781616 665 316.5 C 665 327.8218384 589.5599888 337 496.5 337 C 403.4400112 337 328 327.8218384 328 316.5 Z"/></g><g transform="translate(-102,-62) scale(1,1)"><path fill="none" stroke="#000000" d="M 328 316.5 C 328 305.1781616 403.4400112 296 496.5 296 C 589.5599888 296 665 305.1781616 665 316.5 C 665 327.8218384 589.5599888 337 496.5 337 C 403.4400112 337 328 327.8218384 328 316.5 Z" stroke-miterlimit="10"/></g><g transform="translate(-102,-62) scale(1,1)"><g><path fill="none" stroke="none"/><text fill="#000000" stroke="none" font-family="Arial" font-size="13px" font-style="normal" font-weight="bold" text-decoration="none" x="390.160888671875" y="323.5">Позвонить за пределы учреждения</text></g></g><g transform="translate(-102,-62) scale(1,1)"><path fill="none" stroke="#000000" d="M 224 240 L 421 295" stroke-miterlimit="10"/></g><g transform="translate(-102,-62) scale(1,1)"><path fill="#C0C0C0" stroke="none" d="M 431 264 C 431 254.6111584 468.3842192 247 514.5 247 C 560.6157808 247 598 254.6111584 598 264 C 598 273.3888416 560.6157808 281 514.5 281 C 468.3842192 281 431 273.3888416 431 264 Z" opacity="0.2"/></g><g transform="translate(-102,-62) scale(1,1)"><path fill="#ffffff" stroke="none" d="M 424 257 C 424 247.6111584 461.3842192 240 507.5 240 C 553.6157808 240 591 247.6111584 591 257 C 591 266.3888416 553.6157808 274 507.5 274 C 461.3842192 274 424 266.3888416 424 257 Z"/></g><g transform="translate(-102,-62) scale(1,1)"><path fill="none" stroke="#000000" d="M 424 257 C 424 247.6111584 461.3842192 240 507.5 240 C 553.6157808 240 591 247.6111584 591 257 C 591 266.3888416 553.6157808 274 507.5 274 C 461.3842192 274 424 266.3888416 424 257 Z" stroke-miterlimit="10"/></g><g transform="translate(-102,-62) scale(1,1)"><g><path fill="none" stroke="none"/><text fill="#000000" stroke="none" font-family="Arial" font-size="13px" font-style="normal" font-weight="bold" text-decoration="none" x="455.88720703125" y="264">Набрать номер 9</text></g></g><g transform="translate(-102,-62) scale(1,1)"><path fill="none" stroke="#000000" d="M 500 295 L 504 275" stroke-miterlimit="10" stroke-dasharray="3"/></g><g transform="translate(-102,-62) scale(1,1)"><path fill="none" stroke="#000000" d="M 506.13470724978384 285.79087693182163 L 504 275 L 497.87916371872967 284.1397682256108" stroke-miterlimit="10"/></g><g transform="translate(-102,-62) scale(1,1)"><g><path fill="none" stroke="none"/><text fill="#000000" stroke="none" font-family="Arial" font-size="13px" font-style="normal" font-weight="normal" text-decoration="none" x="502.5" y="291.5">«include»</text></g></g><g transform="translate(-102,-62) scale(1,1)"><path fill="none" stroke="#000000" d="M 628 295 L 839 262" stroke-miterlimit="10" stroke-dasharray="3"/></g><g transform="translate(-102,-62) scale(1,1)"><path fill="none" stroke="#000000" d="M 829.6098353577806 267.72929384758834 L 839 262 L 828.3089283739885 259.41137343606863" stroke-miterlimit="10"/></g><g transform="translate(-102,-62) scale(1,1)"><g><path fill="none" stroke="none"/><text fill="#000000" stroke="none" font-family="Arial" font-size="13px" font-style="normal" font-weight="normal" text-decoration="none" x="676.5" y="270.5">«include»</text></g></g><g transform="translate(-102,-62) scale(1,1)"><path fill="#C0C0C0" stroke="none" d="M 311 440 C 311 430.6111584 389.35016 423 486 423 C 582.64984 423 661 430.6111584 661 440 C 661 449.3888416 582.64984 457 486 457 C 389.35016 457 311 449.3888416 311 440 Z" opacity="0.2"/></g><g transform="translate(-102,-62) scale(1,1)"><path fill="#ffffff" stroke="none" d="M 304 433 C 304 423.6111584 382.35016 416 479 416 C 575.64984 416 654 423.6111584 654 433 C 654 442.3888416 575.64984 450 479 450 C 382.35016 450 304 442.3888416 304 433 Z"/></g><g transform="translate(-102,-62) scale(1,1)"><path fill="none" stroke="#000000" d="M 304 433 C 304 423.6111584 382.35016 416 479 416 C 575.64984 416 654 423.6111584 654 433 C 654 442.3888416 575.64984 450 479 450 C 382.35016 450 304 442.3888416 304 433 Z" stroke-miterlimit="10"/></g><g transform="translate(-102,-62) scale(1,1)"><g><path fill="none" stroke="none"/><text fill="#000000" stroke="none" font-family="Arial" font-size="13px" font-style="normal" font-weight="bold" text-decoration="none" x="368.474609375" y="440">Получить сигнал о входящем звонке</text></g></g><g transform="translate(-102,-62) scale(1,1)"><path fill="none" stroke="#000000" d="M 224 254 L 453 415" stroke-miterlimit="10"/></g><g transform="translate(-102,-62) scale(1,1)"><path fill="none" stroke="#000000" d="M 522 415 L 875 267" stroke-miterlimit="10" stroke-dasharray="3"/></g><g transform="translate(-102,-62) scale(1,1)"><path fill="none" stroke="#000000" d="M 867.2553640279132 274.81156921878426 L 875 267 L 864.0001018200056 267.0473289526266" stroke-miterlimit="10"/></g><g transform="translate(-102,-62) scale(1,1)"><g><path fill="none" stroke="none"/><text fill="#000000" stroke="none" font-family="Arial" font-size="13px" font-style="normal" font-weight="normal" text-decoration="none" x="633.5" y="351.5">«include»</text></g></g><g transform="translate(-102,-62) scale(1,1)"><path fill="#C0C0C0" stroke="none" d="M 349.49951171875 632 C 349.49951171875 622.6111584 427.17809891875 615 522.99951171875 615 C 618.82092451875 615 696.49951171875 622.6111584 696.49951171875 632 C 696.49951171875 641.3888416 618.82092451875 649 522.99951171875 649 C 427.17809891875 649 349.49951171875 641.3888416 349.49951171875 632 Z" opacity="0.2"/></g><g transform="translate(-102,-62) scale(1,1)"><path fill="#ffffff" stroke="none" d="M 342.49951171875 625 C 342.49951171875 615.6111584 420.17809891875 608 515.99951171875 608 C 611.82092451875 608 689.49951171875 615.6111584 689.49951171875 625 C 689.49951171875 634.3888416 611.82092451875 642 515.99951171875 642 C 420.17809891875 642 342.49951171875 634.3888416 342.49951171875 625 Z"/></g><g transform="translate(-102,-62) scale(1,1)"><path fill="none" stroke="#000000" d="M 342.49951171875 625 C 342.49951171875 615.6111584 420.17809891875 608 515.99951171875 608 C 611.82092451875 608 689.49951171875 615.6111584 689.49951171875 625 C 689.49951171875 634.3888416 611.82092451875 642 515.99951171875 642 C 420.17809891875 642 342.49951171875 634.3888416 342.49951171875 625 Z" stroke-miterlimit="10"/></g><g transform="translate(-102,-62) scale(1,1)"><g><path fill="none" stroke="none"/><text fill="#000000" stroke="none" font-family="Arial" font-size="13px" font-style="normal" font-weight="bold" text-decoration="none" x="406.626220703125" y="632">Получить звонок из вне учреждения</text></g></g><g transform="translate(-102,-62) scale(1,1)"><path fill="none" stroke="#000000" d="M 273 641 L 341 637" stroke-miterlimit="10"/></g><g transform="translate(-102,-62) scale(1,1)"><path fill="none" stroke="#000000" d="M 689 624 L 918 624 L 918 266" stroke-miterlimit="10" stroke-dasharray="3"/></g><g transform="translate(-102,-62) scale(1,1)"><path fill="none" stroke="#000000" d="M 922.209517756016 276.16267485762415 L 918 266 L 913.790482243984 276.16267485762415" stroke-miterlimit="10"/></g><g transform="translate(-102,-62) scale(1,1)"><g><path fill="none" stroke="none"/><text fill="#000000" stroke="none" font-family="Arial" font-size="13px" font-style="normal" font-weight="normal" text-decoration="none" x="847.5" y="603.5">«include»</text></g></g><g transform="translate(-102,-62) scale(1,1)"><path fill="none" stroke="#000000" d="M 192 608 L 192 271" stroke-miterlimit="10"/></g><g transform="translate(-102,-62) scale(1,1)"><path fill="#FFFFFF" stroke="none" d="M 200.41903551203197 291.3253497152483 L 192 271 L 183.58096448796803 291.3253497152483"/></g><g transform="translate(-102,-62) scale(1,1)"><path fill="none" stroke="#000000" d="M 200.41903551203197 291.3253497152483 L 192 271 L 183.58096448796803 291.3253497152483 L 200.41903551203197 291.3253497152483" stroke-miterlimit="10"/></g><g transform="translate(-102,-62) scale(1,1)"><path fill="#C0C0C0" stroke="none" d="M 527 208 C 527 198.6111584 612.065888 191 717 191 C 821.934112 191 907 198.6111584 907 208 C 907 217.3888416 821.934112 225 717 225 C 612.065888 225 527 217.3888416 527 208 Z" opacity="0.2"/></g><g transform="translate(-102,-62) scale(1,1)"><path fill="#ffffff" stroke="none" d="M 520 201 C 520 191.6111584 605.065888 184 710 184 C 814.934112 184 900 191.6111584 900 201 C 900 210.3888416 814.934112 218 710 218 C 605.065888 218 520 210.3888416 520 201 Z"/></g><g transform="translate(-102,-62) scale(1,1)"><path fill="none" stroke="#000000" d="M 520 201 C 520 191.6111584 605.065888 184 710 184 C 814.934112 184 900 191.6111584 900 201 C 900 210.3888416 814.934112 218 710 218 C 605.065888 218 520 210.3888416 520 201 Z" stroke-miterlimit="10"/></g><g transform="translate(-102,-62) scale(1,1)"><g><path fill="none" stroke="none"/><text fill="#000000" stroke="none" font-family="Arial" font-size="13px" font-style="normal" font-weight="bold" text-decoration="none" x="588.769287109375" y="208">Набрать номер заново в случае ошибки</text></g></g><g transform="translate(-102,-62) scale(1,1)"><path fill="none" stroke="#000000" d="M 659 183 L 579 155" stroke-miterlimit="10" stroke-dasharray="3"/></g><g transform="translate(-102,-62) scale(1,1)"><path fill="none" stroke="#000000" d="M 589.9827415659997 154.38405544530298 L 579 155 L 587.201509608799 162.3304324658766" stroke-miterlimit="10"/></g><g transform="translate(-102,-62) scale(1,1)"><g><path fill="none" stroke="none"/><text fill="#000000" stroke="none" font-family="Arial" font-size="13px" font-style="normal" font-weight="normal" text-decoration="none" x="638.5" y="179.5">«extend»</text></g></g><g transform="translate(-102,-62) scale(1,1)"><path fill="none" stroke="#000000" d="M 645 219 L 572 239" stroke-miterlimit="10" stroke-dasharray="3"/></g><g transform="translate(-102,-62) scale(1,1)"><path fill="none" stroke="#000000" d="M 580.6891734394736 232.25475983090703 L 572 239 L 582.9137785262554 240.37456839766034" stroke-miterlimit="10"/></g><g transform="translate(-102,-62) scale(1,1)"><g><path fill="none" stroke="none"/><text fill="#000000" stroke="none" font-family="Arial" font-size="13px" font-style="normal" font-weight="normal" text-decoration="none" x="599.5" y="243.5">«extend»</text></g></g></g></svg>